<?xml version="1.0" encoding="UTF-8"?>
<svg version="1.1" xmlns="http://www.w3.org/2000/svg" width="512" height="512">
<path d="M0 0 C2.02103232 -0.00300026 4.04206407 -0.00640475 6.06309509 -0.01017761 C11.50367923 -0.01893468 16.9442476 -0.02135222 22.3848381 -0.0219934 C25.79880686 -0.02270876 29.21277172 -0.0248522 32.6267395 -0.02749062 C44.57944997 -0.03671737 56.53214937 -0.04082896 68.48486328 -0.04003906 C79.55749073 -0.03943934 90.6300693 -0.0499773 101.7026844 -0.06578273 C111.26597379 -0.07893831 120.82924736 -0.08421961 130.3925457 -0.08358365 C136.07893474 -0.08333097 141.76528028 -0.08605338 147.45166016 -0.0967617 C224.89378451 -0.2322536 224.89378451 -0.2322536 252.25 18.15698242 C255.07733158 20.11107281 255.07733158 20.11107281 257.5 21.19604492 C260.28583552 22.68060201 261.80565312 25.03525898 263.71875 27.48901367 C265.18875697 29.24230234 265.18875697 29.24230234 267.234375 30.09838867 C277.94600183 35.5768543 284.75120948 52.75009283 288.59375 63.70776367 C294.19983295 81.36784428 294.72517715 99.48149331 294.66943359 117.86010742 C294.67351085 120.15422819 294.67885914 122.44834699 294.68536377 124.74246216 C294.69890597 130.90777129 294.69379345 137.07292788 294.68422651 143.23823929 C294.67656134 149.73060732 294.68369437 156.22296342 294.68838501 162.71533203 C294.69416977 174.30760443 294.68492367 185.89980805 294.669607 197.4920696 C294.6562078 207.95625414 294.65853712 218.42033875 294.67236328 228.88452148 C294.6884967 241.10026946 294.69435219 253.31594649 294.68552649 265.5317049 C294.68088099 271.97468268 294.68013816 278.41759198 294.69013596 284.86056519 C294.69888635 290.92158638 294.69263828 296.98242134 294.67545319 303.0434227 C294.67153103 305.25027026 294.67254769 307.45713386 294.67924118 309.66397476 C294.76298145 340.11105345 290.84646813 370.80765885 268.8581543 393.6940918 C245.20076506 417.39993638 216.55805422 423.49664657 183.91372681 423.55184937 C181.79266271 423.54602007 179.67159947 423.5398758 177.55053711 423.53344727 C175.25479383 423.53752449 172.95905251 423.54287275 170.66331482 423.54937744 C164.49394076 423.56291928 158.32471915 423.55780749 152.15534282 423.54824018 C145.6598376 423.54057574 139.1643443 423.54770776 132.6688385 423.55239868 C121.07210498 423.55818325 109.47544022 423.5489374 97.87871755 423.53362067 C87.40796207 423.52021829 76.93730643 423.52255347 66.46655273 423.53637695 C54.24458842 423.55250532 42.02269501 423.55836875 29.80072027 423.54954016 C23.35386199 423.5448928 16.90707216 423.54415719 10.46021843 423.55414963 C4.396738 423.56289369 -1.66655614 423.55666316 -7.73001671 423.53946686 C-9.93889687 423.53554158 -12.14779304 423.53656694 -14.35666656 423.54325485 C-47.28948055 423.63368088 -76.60789266 417.86477633 -101.46875 394.83276367 C-125.13729931 369.64475194 -128.04530029 337.14933854 -127.97753906 304.25830078 C-127.98025587 302.01724637 -127.98382064 299.77619285 -127.98815918 297.53514099 C-127.99720296 291.50217736 -127.99377243 285.46928285 -127.98740101 279.43631816 C-127.98229983 273.09154129 -127.98704376 266.74676992 -127.99017334 260.4019928 C-127.99403243 249.07284145 -127.9878593 237.74372486 -127.97765467 226.41458047 C-127.96871928 216.17822705 -127.97027603 205.94191901 -127.97949219 195.70556641 C-127.99023604 183.76713119 -127.99415778 171.82872345 -127.98826766 159.89028174 C-127.98516562 153.58936415 -127.98468975 147.28847771 -127.99134064 140.98756218 C-127.99715964 135.0620586 -127.99303464 129.13663991 -127.98155212 123.2111454 C-127.97892986 121.04938268 -127.97962844 118.8876127 -127.98407745 116.72585297 C-128.02587348 94.33637258 -126.48870152 72.66216187 -116.71875 52.14526367 C-116.30109375 51.24549805 -115.8834375 50.34573242 -115.453125 49.41870117 C-111.40051918 41.33678037 -105.75765734 34.79535952 -99.71875 28.14526367 C-99.03039062 27.38084961 -98.34203125 26.61643555 -97.6328125 25.82885742 C-95.54409871 23.99164183 -94.36418025 23.76560681 -91.71875 23.14526367 C-90.25914391 22.01095739 -88.84730357 20.81430366 -87.46875 19.58276367 C-62.93757191 -0.51115721 -30.08804004 -0.00903832 0 0 Z " fill="#00004A" transform="translate(172.71875,48.854736328125)"/>
<path d="M0 0 C1.45688736 -0.01925285 1.45688736 -0.01925285 2.94320679 -0.03889465 C4.00044952 -0.04628159 5.05769226 -0.05366852 6.14697266 -0.0612793 C7.22604889 -0.06935104 8.30512512 -0.07742279 9.41690063 -0.08573914 C11.70516341 -0.09959806 13.99344701 -0.11031208 16.28173828 -0.11816406 C19.78929584 -0.13539128 23.29591476 -0.17926384 26.80322266 -0.22338867 C29.0219657 -0.23351365 31.24071678 -0.24203036 33.45947266 -0.2487793 C35.03926407 -0.27504143 35.03926407 -0.27504143 36.65097046 -0.30183411 C38.1173143 -0.29744576 38.1173143 -0.29744576 39.61328125 -0.29296875 C40.9044838 -0.30176811 40.9044838 -0.30176811 42.22177124 -0.31074524 C44.43603516 0.17700195 44.43603516 0.17700195 46.17997742 2.06742859 C47.50335228 4.29006236 48.33833232 6.34532186 49.11962891 8.80981445 C49.40773438 9.69926758 49.69583984 10.5887207 49.99267578 11.50512695 C50.28335938 12.4280957 50.57404297 13.35106445 50.87353516 14.30200195 C52.57399876 19.63649001 54.28713579 24.92250715 56.40869141 30.10668945 C59.1049756 36.70396673 61.23512116 43.48043857 63.43603516 50.25512695 C65.26608867 55.83107127 67.24621556 61.28485521 69.46728516 66.71606445 C71.48174908 71.83345266 73.09947405 77.09092036 74.79150391 82.3215332 C76.21419903 86.66686899 77.70952243 90.94222219 79.43603516 95.17700195 C81.86196521 101.12730823 83.81474391 107.2107272 85.79150391 113.3215332 C87.21419903 117.66686899 88.70952243 121.94222219 90.43603516 126.17700195 C92.86196521 132.12730823 94.81474391 138.2107272 96.79150391 144.3215332 C98.20157758 148.6283193 99.67980633 152.86738971 101.39306641 157.0637207 C103.72601135 162.78860779 105.68233311 168.62219145 107.62353516 174.48950195 C107.97867188 175.54717773 108.33380859 176.60485352 108.69970703 177.69458008 C109.039375 178.71616211 109.37904297 179.73774414 109.72900391 180.7902832 C110.03346436 181.70592041 110.3379248 182.62155762 110.65161133 183.56494141 C111.40118607 186.06095764 111.92492929 188.62147263 112.43603516 191.17700195 C98.57603516 191.17700195 84.71603516 191.17700195 70.43603516 191.17700195 C64.57697592 176.52935386 59.45526572 162.23469363 54.43603516 147.17700195 C32.32603516 147.17700195 10.21603516 147.17700195 -12.56396484 147.17700195 C-15.77633159 155.10411719 -15.77633159 155.10411719 -18.43896484 163.11450195 C-18.76380859 164.1921582 -19.08865234 165.26981445 -19.42333984 166.38012695 C-19.79974609 167.6330957 -20.17615234 168.88606445 -20.56396484 170.17700195 C-21.5940289 173.57648949 -22.63837862 176.97130618 -23.68896484 180.36450195 C-23.94274902 181.20295654 -24.1965332 182.04141113 -24.45800781 182.90527344 C-24.82369873 184.08198608 -24.82369873 184.08198608 -25.19677734 185.2824707 C-25.41221191 185.98525146 -25.62764648 186.68803223 -25.84960938 187.41210938 C-26.56396484 189.17700195 -26.56396484 189.17700195 -28.56396484 191.17700195 C-31.36081281 191.3522525 -34.05724564 191.40843384 -36.85302734 191.37231445 C-37.67145111 191.36948456 -38.48987488 191.36665466 -39.33309937 191.36373901 C-41.95186877 191.35252727 -44.57029848 191.32742124 -47.18896484 191.30200195 C-48.96239741 191.29197342 -50.73583533 191.28284735 -52.50927734 191.2746582 C-56.8609711 191.25258473 -61.21241034 191.2180484 -65.56396484 191.17700195 C-65.72627757 182.60566298 -65.72627757 182.60566298 -64.42724609 179.2043457 C-64.18208252 178.53975342 -63.93691895 177.87516113 -63.68432617 177.19042969 C-63.28443481 176.16284546 -63.28443481 176.16284546 -62.87646484 175.11450195 C-62.32308749 173.62539886 -61.77103009 172.13580466 -61.22021484 170.64575195 C-60.94177734 169.90196289 -60.66333984 169.15817383 -60.37646484 168.3918457 C-59.12937144 164.99231706 -58.00029513 161.55636965 -56.87646484 158.11450195 C-55.68751121 154.48226902 -54.46463143 150.87791504 -53.10693359 147.3059082 C-51.46426801 142.97050215 -50.00727258 138.58209745 -48.56396484 134.17700195 C-46.90430891 129.11159373 -45.17706691 124.09313628 -43.28271484 119.1105957 C-42.12432301 115.99426984 -41.09925648 112.83596875 -40.06396484 109.67700195 C-38.80845546 105.84608871 -37.52775138 102.03862149 -36.09521484 98.27075195 C-34.45560667 93.94738614 -33.00342818 89.57036401 -31.56396484 85.17700195 C-29.90469761 80.11278008 -28.17702561 75.09618894 -26.28271484 70.11499023 C-24.6622806 65.74576231 -23.28394585 61.29207164 -21.84521484 56.8605957 C-20.56396484 53.17700195 -20.56396484 53.17700195 -19.09521484 49.8059082 C-17.27991434 45.50383125 -15.91803247 41.14119365 -14.56396484 36.67700195 C-11.80557502 27.5829355 -11.80557502 27.5829355 -9.94677734 23.3527832 C-7.11895749 16.85838336 -6.34080912 10.1646569 -5.81005859 3.14575195 C-5.34012612 -0.61370782 -3.35362445 0.03842338 0 0 Z " fill="#8989FD" transform="translate(160.56396484375,146.822998046875)"/>
<path d="M0 0 C9.52805029 7.4754281 16.29513332 15.84364388 21 27 C21.39574219 27.92425781 21.79148437 28.84851563 22.19921875 29.80078125 C26.76729741 42.67154324 28.15395682 62.15166082 23 75 C19.79311929 76.60344035 16.30817153 76.12922745 12.78662109 76.11352539 C11.51334206 76.11374443 11.51334206 76.11374443 10.21434021 76.1139679 C7.40068023 76.11326966 4.58708596 76.1054814 1.7734375 76.09765625 C-0.17426518 76.09579175 -2.12196832 76.094368 -4.06967163 76.09336853 C-9.20220224 76.08954583 -14.33470467 76.07971765 -19.46722412 76.06866455 C-24.70210387 76.05844512 -29.93698816 76.05386977 -35.171875 76.04882812 C-45.44792907 76.03809517 -55.72396219 76.0210217 -66 76 C-65.53593334 77.60624253 -65.06717459 79.21112994 -64.59643555 80.81542969 C-64.3358989 81.70929382 -64.07536224 82.60315796 -63.80693054 83.52410889 C-61.24241479 91.39276851 -55.22435091 98.09494545 -48 102 C-29.09863304 111.00065094 -6.00574729 105.70172419 13 100 C13 110.56 13 121.12 13 132 C-2.39103769 139.69551884 -17.24857796 141.35369176 -34.375 141.25 C-35.67566406 141.25773438 -36.97632813 141.26546875 -38.31640625 141.2734375 C-44.91567231 141.25998334 -50.70256394 140.994663 -57 139 C-58.51207031 138.57460938 -58.51207031 138.57460938 -60.0546875 138.140625 C-77.73238726 132.5581935 -90.21041965 121.30714068 -98.75 104.9375 C-109.31105812 82.64193285 -109.83911363 58.37402402 -101.71484375 35.359375 C-95.04422698 18.48773147 -83.96118858 4.85051689 -68 -4 C-46.70817332 -13.1509553 -19.63771527 -13.68873197 0 0 Z " fill="#8989FD" transform="translate(393,200)"/>
<path d="M0 0 C-0.33 0.99 -0.66 1.98 -1 3 C-1.66 3 -2.32 3 -3 3 C-3.268125 3.61875 -3.53625 4.2375 -3.8125 4.875 C-5 7 -5 7 -8 9 C-8.97506703 10.61390404 -9.9397376 12.23553526 -10.8359375 13.89453125 C-12.11980098 16.21668701 -13.52638625 18.44057273 -14.9375 20.6875 C-19.80170561 28.84760311 -23.00357261 37.23542947 -25.25 46.4375 C-25.41322754 47.09242432 -25.57645508 47.74734863 -25.74462891 48.42211914 C-28.85746082 62.07846747 -28.15439246 76.4199245 -28.16113281 90.33178711 C-28.16576926 92.57384318 -28.17079501 94.81589848 -28.17617798 97.05795288 C-28.18922496 103.11838402 -28.19573188 109.17880412 -28.20018864 115.23924708 C-28.20313205 119.03643295 -28.20723918 122.83361588 -28.21169281 126.63080025 C-28.22378761 137.18180559 -28.23417416 147.73280836 -28.2375679 158.28382015 C-28.23778747 158.95684741 -28.23800703 159.62987467 -28.23823325 160.3232967 C-28.23845153 160.99776428 -28.23866981 161.67223186 -28.2388947 162.36713785 C-28.23933814 163.73344672 -28.2397847 165.09975559 -28.24023438 166.46606445 C-28.2404558 167.14377412 -28.24067723 167.82148378 -28.24090537 168.5197301 C-28.24484661 179.48100067 -28.26228605 190.44220451 -28.2855939 201.40344935 C-28.30943066 212.70635617 -28.32151843 224.00921843 -28.32293582 235.31215483 C-28.32397759 241.63848553 -28.3297503 247.96472188 -28.34775543 254.29102898 C-28.36438969 260.2509727 -28.36631812 266.21075267 -28.35761642 272.17071152 C-28.35685418 274.34005107 -28.36107934 276.5094 -28.37107468 278.67871666 C-28.41796127 289.50219528 -28.09859824 300.12131324 -26.68475342 310.86305237 C-26.57104503 311.74085576 -26.45733664 312.61865915 -26.34018254 313.52306265 C-25.01334703 322.57467438 -21.84769717 330.74603432 -18 339 C-17.53722656 340.02351563 -17.07445313 341.04703125 -16.59765625 342.1015625 C-7.50303915 360.39624153 10.02154416 375.16051954 29.13671875 382.1640625 C41.87229217 385.88222445 54.5831535 388.15684783 67.85853577 388.13371277 C68.82258959 388.13597833 69.78664341 388.13824388 70.77991098 388.14057809 C73.9952948 388.14688454 77.21063609 388.14609088 80.42602539 388.14526367 C82.73781386 388.14825732 85.04960184 388.15166033 87.36138916 388.15544128 C93.63238642 388.16426616 99.90337004 388.16661881 106.17437291 388.16725707 C110.09694195 388.16796862 114.01950754 388.17010497 117.94207573 388.17275429 C130.93382211 388.1815268 143.92555883 388.18617462 156.91730804 388.18542381 C157.61676191 388.18538386 158.31621579 388.1853439 159.03686523 388.18530273 C160.08734078 388.18524141 160.08734078 388.18524141 161.15903806 388.18517885 C172.49393096 388.1847729 183.82879055 388.19433079 195.16367383 388.2084411 C206.8268604 388.22284443 218.49002925 388.22952642 230.15322489 388.22884732 C236.69121094 388.22859306 243.22915931 388.23140449 249.76713753 388.24202538 C255.92231181 388.25175139 262.07741276 388.25175477 268.23258972 388.24450874 C270.48226466 388.24346837 272.73194428 388.24579299 274.98161125 388.2518692 C304.6316964 388.32671669 331.16279932 384.44676472 354 364 C354.59683594 363.49597656 355.19367188 362.99195313 355.80859375 362.47265625 C372.4449684 347.37312914 380.3505756 323.8352292 382 302 C382.12735844 298.62221178 382.13962038 295.24964807 382.13371277 291.86972046 C382.13597833 290.9005798 382.13824388 289.93143914 382.14057809 288.93293059 C382.14686632 285.71227335 382.14609207 282.49165876 382.14526367 279.27099609 C382.14825843 276.95068305 382.15166169 274.6303705 382.15544128 272.31005859 C382.16425409 266.02465028 382.16661828 259.73925559 382.16725707 253.45384169 C382.16796922 249.52086846 382.17010667 245.58789867 382.17275429 241.6549263 C382.18152279 228.62472477 382.18617512 215.59453177 382.18542381 202.56432728 C382.18538386 201.86327994 382.1853439 201.1622326 382.18530273 200.43994141 C382.18526185 199.73802707 382.18522097 199.03611274 382.18517885 198.31292827 C382.18477282 186.94973877 382.19433392 175.58658246 382.2084411 164.22340254 C382.2228484 152.52511797 382.22970887 140.82684955 382.22884732 129.12855589 C382.22859319 122.57324143 382.23139732 116.01796456 382.24202538 109.46265793 C382.25175729 103.29185935 382.2517508 97.1211339 382.24450874 90.95033264 C382.24346915 88.69623838 382.24578825 86.44213943 382.2518692 84.18805313 C382.31465403 59.28539164 380.11903985 35.91138517 365.78515625 14.7265625 C364 12 364 12 364 10 C363.01 9.67 362.02 9.34 361 9 C360.3125 6.9375 360.3125 6.9375 360 5 C364.67767031 8.58144772 367.8794413 12.18750943 371.0625 17.125 C371.4958667 17.79168701 371.9292334 18.45837402 372.37573242 19.14526367 C377.56633743 27.27678785 380.99528469 35.4464931 383.6875 44.6875 C383.89028564 45.36917236 384.09307129 46.05084473 384.30200195 46.75317383 C388.46332911 61.93723982 388.29440355 77.54251318 388.2746582 93.1472168 C388.2790143 95.44059921 388.28420042 97.73398017 388.29014587 100.02735901 C388.30345192 106.21359128 388.30412385 112.39976215 388.30158257 118.58600593 C388.30050693 123.7717143 388.30541142 128.95741054 388.310188 134.1431163 C388.32188555 147.0881489 388.32107482 160.03314263 388.31463119 172.97817687 C388.30946778 184.16949796 388.32070889 195.36073186 388.33972941 206.55203571 C388.3591955 218.0957316 388.36705836 229.63937611 388.36360615 241.18308955 C388.36180354 247.64291578 388.36432639 254.10266218 388.37832069 260.5624752 C388.39100416 266.64393925 388.38885662 272.72523037 388.37590981 278.80669212 C388.37356703 281.02160199 388.3761947 283.23652442 388.38453293 285.45141983 C388.49085126 315.9219415 384.58358688 346.64327616 362.5769043 369.54882812 C338.91951506 393.25467271 310.27680422 399.3513829 277.63247681 399.40658569 C275.51141271 399.4007564 273.39034947 399.39461212 271.26928711 399.38818359 C268.97354383 399.39226082 266.67780251 399.39760908 264.38206482 399.40411377 C258.21269076 399.41765561 252.04346915 399.41254382 245.87409282 399.40297651 C239.3785876 399.39531207 232.8830943 399.40244409 226.3875885 399.40713501 C214.79085498 399.41291957 203.19419022 399.40367373 191.59746755 399.388357 C181.12671207 399.37495461 170.65605643 399.3772898 160.18530273 399.39111328 C147.96333842 399.40724165 135.74144501 399.41310508 123.51947027 399.40427649 C117.07261199 399.39962913 110.62582216 399.39889351 104.17896843 399.40888596 C98.115488 399.41763002 92.05219386 399.41139949 85.98873329 399.39420319 C83.77985313 399.3902779 81.57095696 399.39130327 79.36208344 399.39799118 C46.42926945 399.48841721 17.11085734 393.71951266 -7.75 370.6875 C-31.41854931 345.49948827 -34.32655029 313.00407486 -34.25878906 280.11303711 C-34.26150587 277.8719827 -34.26507064 275.63092918 -34.26940918 273.38987732 C-34.27845296 267.35691369 -34.27502243 261.32401918 -34.26865101 255.29105449 C-34.26354983 248.94627762 -34.26829376 242.60150625 -34.27142334 236.25672913 C-34.27528243 224.92757778 -34.2691093 213.59846119 -34.25890467 202.2693168 C-34.24996928 192.03296338 -34.25152603 181.79665534 -34.26074219 171.56030273 C-34.27148604 159.62186752 -34.27540778 147.68345978 -34.26951766 135.74501806 C-34.26641562 129.44410048 -34.26593975 123.14321403 -34.27259064 116.84229851 C-34.27840964 110.91679493 -34.27428464 104.99137624 -34.26280212 99.06588173 C-34.26017986 96.90411901 -34.26087844 94.74234903 -34.26532745 92.58058929 C-34.30712348 70.19110891 -32.76995152 48.5168982 -23 28 C-22.58234375 27.10023437 -22.1646875 26.20046875 -21.734375 25.2734375 C-18.632148 19.0868124 -7.58790631 0 0 0 Z " fill="#000002" transform="translate(79,73)"/>
<path d="M0 0 C0.66 0 1.32 0 2 0 C5.74063953 11.95835023 9.47020482 23.92013575 13.19384766 35.88378906 C13.8179808 37.88873907 14.44233208 39.89362118 15.06689453 41.8984375 C15.98519888 44.84619926 16.90282636 47.79417099 17.8203125 50.7421875 C18.09537628 51.62470184 18.37044006 52.50721619 18.65383911 53.41647339 C19.17872636 55.10401583 19.70174838 56.79213979 20.22271729 58.480896 C20.76567969 60.24058875 21.31338576 61.99882171 21.86468506 63.75592041 C22.13992004 64.64615906 22.41515503 65.53639771 22.69873047 66.45361328 C22.94847626 67.25437286 23.19822205 68.05513245 23.45553589 68.88015747 C24 71 24 71 24 74 C9.15 74 -5.7 74 -21 74 C-19.88528139 65.08225108 -19.88528139 65.08225108 -18.1875 60.875 C-16.13001307 55.49730852 -14.53999488 50.05893516 -12.9921875 44.515625 C-12.0807679 41.28618548 -11.11929112 38.07973997 -10.125 34.875 C-8.35134541 29.15285245 -6.60479695 23.42303198 -4.875 17.6875 C-4.62121582 16.85138184 -4.36743164 16.01526367 -4.10595703 15.15380859 C-2.59422121 10.13100886 -1.2321528 5.09876562 0 0 Z " fill="#04044F" transform="translate(180,182)"/>
<path d="M0 0 C5.06179898 3.70310557 8.4392263 8.05423384 11.2265625 13.62890625 C11.2265625 16.59890625 11.2265625 19.56890625 11.2265625 22.62890625 C-5.9334375 22.62890625 -23.0934375 22.62890625 -40.7734375 22.62890625 C-39.71895459 13.13856008 -37.84262213 8.04485427 -30.8359375 1.75390625 C-21.28300114 -4.87466183 -10.34628207 -5.91456841 0 0 Z " fill="#040450" transform="translate(368.7734375,225.37109375)"/>
<path d="" fill="#000000" transform="translate(0,0)"/>
<path d="" fill="#000000" transform="translate(0,0)"/>
<path d="" fill="#000000" transform="translate(0,0)"/>
<path d="" fill="#000000" transform="translate(0,0)"/>
<path d="" fill="#000000" transform="translate(0,0)"/>
<path d="" fill="#000000" transform="translate(0,0)"/>
<path d="" fill="#000000" transform="translate(0,0)"/>
<path d="" fill="#000000" transform="translate(0,0)"/>
<path d="" fill="#000000" transform="translate(0,0)"/>
<path d="" fill="#000000" transform="translate(0,0)"/>
<path d="" fill="#000000" transform="translate(0,0)"/>
</svg>
