<?xml version="1.0" encoding="UTF-8"?>
<svg version="1.1" xmlns="http://www.w3.org/2000/svg" width="512" height="512">
<path d="M0 0 C2.13928761 -0.00135865 4.27857499 -0.00314117 6.41786194 -0.00531006 C12.17409244 -0.00982956 17.93030482 -0.00811754 23.6865356 -0.00493097 C29.74476462 -0.00237848 35.80299222 -0.00475293 41.86122131 -0.00631714 C52.03118159 -0.00813059 62.20113458 -0.00575435 72.37109375 -0.00097656 C84.08402495 0.00446299 95.79693874 0.00270228 107.50986952 -0.00280297 C117.61320739 -0.00735939 127.71654006 -0.00797227 137.81987864 -0.0053643 C143.83357024 -0.00381521 149.84725369 -0.00356985 155.86094475 -0.00690079 C161.51885851 -0.00981638 167.17675009 -0.00773693 172.83466148 -0.00200653 C174.89560662 -0.00069847 176.95655367 -0.00103923 179.01749802 -0.0032692 C214.15004524 -0.03774127 214.15004524 -0.03774127 227.25024414 2.81689453 C228.07355225 2.9913208 228.89686035 3.16574707 229.74511719 3.34545898 C254.51661297 8.88239176 275.2107828 21.76189294 288.96069336 43.32226562 C304.99811983 69.62023433 305.38736918 99.69394621 305.3215332 129.63671875 C305.32425397 131.76553465 305.3278209 133.89434961 305.33215332 136.02316284 C305.34115185 141.72580897 305.33778542 147.42838149 305.33139515 153.13102865 C305.32626794 159.15124783 305.33104512 165.17146144 305.33416748 171.19168091 C305.33778836 181.29641836 305.33305827 191.40112641 305.32348633 201.50585938 C305.31261137 213.11882 305.31612807 224.73171031 305.32713914 236.34466922 C305.336273 246.38709604 305.33746756 256.42950194 305.3322618 266.47193158 C305.3291746 272.43825817 305.32864154 278.40455195 305.33533478 284.37087631 C305.39830713 349.57082726 305.39830713 349.57082726 299.06274414 369.12939453 C298.7030957 370.25087891 298.34344727 371.37236328 297.97290039 372.52783203 C289.62205235 396.20262682 272.79619403 413.0770486 250.66821289 424.00048828 C237.3479406 430.30322475 222.53888534 432.9477885 207.88304138 433.70333862 C206.72965197 433.76441482 206.72965197 433.76441482 205.55296177 433.82672489 C195.74739128 434.29884035 185.94001274 434.26939702 176.12548828 434.25878906 C173.98620067 434.26014771 171.84691329 434.26193023 169.70762634 434.26409912 C163.95139584 434.26861862 158.19518346 434.2669066 152.43895268 434.26372004 C146.38072366 434.26116755 140.32249606 434.26354199 134.26426697 434.2651062 C124.09430669 434.26691966 113.9243537 434.26454341 103.75439453 434.25976562 C92.04146333 434.25432607 80.32854955 434.25608678 68.61561877 434.26159203 C58.51228089 434.26614845 48.40894822 434.26676133 38.30560964 434.26415336 C32.29191804 434.26260427 26.27823459 434.26235892 20.26454353 434.26568985 C14.60662977 434.26860545 8.94873819 434.26652599 3.2908268 434.26079559 C1.22988166 434.25948753 -0.83106539 434.25982829 -2.89200974 434.26205826 C-38.02833902 434.29653404 -38.02833902 434.29653404 -51.31225586 431.37939453 C-52.55881958 431.11497559 -52.55881958 431.11497559 -53.83056641 430.84521484 C-60.84387915 429.285945 -67.41087166 427.16037446 -73.93725586 424.12939453 C-75.12448242 423.58798828 -76.31170898 423.04658203 -77.53491211 422.48876953 C-100.1764865 411.60974042 -114.94039988 392.3801652 -123.24975586 369.00439453 C-129.53216719 348.52640696 -129.24275061 325.8642227 -129.19604492 304.62207031 C-129.19876569 302.49325441 -129.20233262 300.36443945 -129.20666504 298.23562622 C-129.21566357 292.53298009 -129.21229714 286.83040757 -129.20590687 281.12776041 C-129.20077966 275.10754124 -129.20555684 269.08732762 -129.2086792 263.06710815 C-129.21230008 252.9623707 -129.20756998 242.85766266 -129.19799805 232.75292969 C-129.18712309 221.13996907 -129.19063979 209.52707875 -129.20165086 197.91411984 C-129.21078472 187.87169302 -129.21197928 177.82928712 -129.20677352 167.78685749 C-129.20368632 161.82053089 -129.20315326 155.85423712 -129.2098465 149.88791275 C-129.27281885 84.6879618 -129.27281885 84.6879618 -122.93725586 65.12939453 C-122.57760742 64.00791016 -122.21795898 62.88642578 -121.84741211 61.73095703 C-113.68970449 38.6037186 -96.76468299 20.83860374 -74.99731445 10.07519531 C-61.5944904 3.9217774 -46.40992145 1.32335397 -31.76927185 0.55935669 C-30.99949963 0.51835724 -30.22972741 0.47735779 -29.43662876 0.43511593 C-19.6279459 -0.04008275 -9.81776223 -0.01061145 0 0 Z " fill="#0B1C36" transform="translate(167.937255859375,42.87060546875)"/>
<path d="M0 0 C2.13928761 -0.00135865 4.27857499 -0.00314117 6.41786194 -0.00531006 C12.17409244 -0.00982956 17.93030482 -0.00811754 23.6865356 -0.00493097 C29.74476462 -0.00237848 35.80299222 -0.00475293 41.86122131 -0.00631714 C52.03118159 -0.00813059 62.20113458 -0.00575435 72.37109375 -0.00097656 C84.08402495 0.00446299 95.79693874 0.00270228 107.50986952 -0.00280297 C117.61320739 -0.00735939 127.71654006 -0.00797227 137.81987864 -0.0053643 C143.83357024 -0.00381521 149.84725369 -0.00356985 155.86094475 -0.00690079 C161.51885851 -0.00981638 167.17675009 -0.00773693 172.83466148 -0.00200653 C174.89560662 -0.00069847 176.95655367 -0.00103923 179.01749802 -0.0032692 C214.15004524 -0.03774127 214.15004524 -0.03774127 227.25024414 2.81689453 C228.07355225 2.9913208 228.89686035 3.16574707 229.74511719 3.34545898 C254.51661297 8.88239176 275.2107828 21.76189294 288.96069336 43.32226562 C304.99811983 69.62023433 305.38736918 99.69394621 305.3215332 129.63671875 C305.32425397 131.76553465 305.3278209 133.89434961 305.33215332 136.02316284 C305.34115185 141.72580897 305.33778542 147.42838149 305.33139515 153.13102865 C305.32626794 159.15124783 305.33104512 165.17146144 305.33416748 171.19168091 C305.33778836 181.29641836 305.33305827 191.40112641 305.32348633 201.50585938 C305.31261137 213.11882 305.31612807 224.73171031 305.32713914 236.34466922 C305.336273 246.38709604 305.33746756 256.42950194 305.3322618 266.47193158 C305.3291746 272.43825817 305.32864154 278.40455195 305.33533478 284.37087631 C305.39830713 349.57082726 305.39830713 349.57082726 299.06274414 369.12939453 C298.7030957 370.25087891 298.34344727 371.37236328 297.97290039 372.52783203 C289.62205235 396.20262682 272.79619403 413.0770486 250.66821289 424.00048828 C237.3479406 430.30322475 222.53888534 432.9477885 207.88304138 433.70333862 C206.72965197 433.76441482 206.72965197 433.76441482 205.55296177 433.82672489 C195.74739128 434.29884035 185.94001274 434.26939702 176.12548828 434.25878906 C173.98620067 434.26014771 171.84691329 434.26193023 169.70762634 434.26409912 C163.95139584 434.26861862 158.19518346 434.2669066 152.43895268 434.26372004 C146.38072366 434.26116755 140.32249606 434.26354199 134.26426697 434.2651062 C124.09430669 434.26691966 113.9243537 434.26454341 103.75439453 434.25976562 C92.04146333 434.25432607 80.32854955 434.25608678 68.61561877 434.26159203 C58.51228089 434.26614845 48.40894822 434.26676133 38.30560964 434.26415336 C32.29191804 434.26260427 26.27823459 434.26235892 20.26454353 434.26568985 C14.60662977 434.26860545 8.94873819 434.26652599 3.2908268 434.26079559 C1.22988166 434.25948753 -0.83106539 434.25982829 -2.89200974 434.26205826 C-38.02833902 434.29653404 -38.02833902 434.29653404 -51.31225586 431.37939453 C-52.55881958 431.11497559 -52.55881958 431.11497559 -53.83056641 430.84521484 C-60.84387915 429.285945 -67.41087166 427.16037446 -73.93725586 424.12939453 C-75.12448242 423.58798828 -76.31170898 423.04658203 -77.53491211 422.48876953 C-100.1764865 411.60974042 -114.94039988 392.3801652 -123.24975586 369.00439453 C-129.53216719 348.52640696 -129.24275061 325.8642227 -129.19604492 304.62207031 C-129.19876569 302.49325441 -129.20233262 300.36443945 -129.20666504 298.23562622 C-129.21566357 292.53298009 -129.21229714 286.83040757 -129.20590687 281.12776041 C-129.20077966 275.10754124 -129.20555684 269.08732762 -129.2086792 263.06710815 C-129.21230008 252.9623707 -129.20756998 242.85766266 -129.19799805 232.75292969 C-129.18712309 221.13996907 -129.19063979 209.52707875 -129.20165086 197.91411984 C-129.21078472 187.87169302 -129.21197928 177.82928712 -129.20677352 167.78685749 C-129.20368632 161.82053089 -129.20315326 155.85423712 -129.2098465 149.88791275 C-129.27281885 84.6879618 -129.27281885 84.6879618 -122.93725586 65.12939453 C-122.57760742 64.00791016 -122.21795898 62.88642578 -121.84741211 61.73095703 C-113.68970449 38.6037186 -96.76468299 20.83860374 -74.99731445 10.07519531 C-61.5944904 3.9217774 -46.40992145 1.32335397 -31.76927185 0.55935669 C-30.99949963 0.51835724 -30.22972741 0.47735779 -29.43662876 0.43511593 C-19.6279459 -0.04008275 -9.81776223 -0.01061145 0 0 Z M-33.21934509 7.02056885 C-34.05517327 7.09804029 -34.89100145 7.17551174 -35.75215775 7.2553308 C-57.81737293 9.52885685 -77.57786357 17.93134587 -92.93725586 34.12939453 C-93.67073242 34.85642578 -94.40420898 35.58345703 -95.15991211 36.33251953 C-112.64722348 54.52740997 -118.11518991 79.66534802 -118.07096863 104.11849976 C-118.07323418 105.06046569 -118.07549974 106.00243163 -118.07783395 106.97294199 C-118.08411016 110.09590647 -118.08334871 113.21882683 -118.08251953 116.34179688 C-118.08551512 118.5950323 -118.08891857 120.84826722 -118.09269714 123.10150146 C-118.1015034 129.20124188 -118.10387391 135.30096824 -118.10451293 141.4007144 C-118.10522567 145.22099801 -118.10736428 149.04127809 -118.11001015 152.86156082 C-118.11877806 165.52850152 -118.12343124 178.19543204 -118.12267967 190.86237495 C-118.12263972 191.54362129 -118.12259976 192.22486764 -118.12255859 192.92675781 C-118.12251771 193.6088514 -118.12247683 194.29094499 -118.12243471 194.99370809 C-118.12202911 206.02366381 -118.13157925 217.05358525 -118.14569696 228.08353107 C-118.16012967 239.45077897 -118.16678102 250.81800506 -118.16610318 262.18526423 C-118.16584963 268.55013415 -118.16862086 274.91496531 -118.17928123 281.27982712 C-118.18905124 287.27665068 -118.18898118 293.27339912 -118.1817646 299.27022552 C-118.18072953 301.45449307 -118.18301641 303.63876551 -118.18912506 305.82302475 C-118.2774332 339.62598945 -114.40586249 368.13967376 -90.93725586 394.12939453 C-66.24647946 417.65433326 -33.49370809 419.28358702 -1.30810547 419.2746582 C0.85837868 419.27765523 3.02486229 419.281059 5.19134521 419.28483582 C11.04504024 419.2936257 16.89872063 419.29601184 22.75242162 419.2966516 C26.41960439 419.29736507 30.08678351 419.29950502 33.75396538 419.30214882 C46.57621367 419.3113864 59.39845161 419.31548579 72.22070312 419.31469727 C84.12608774 419.31409724 96.03142693 419.32463842 107.93680006 419.34044093 C118.19631538 419.35356791 128.45581596 419.35887899 138.7153396 419.35824186 C144.82584289 419.35798834 150.93630578 419.36075797 157.04680061 419.37141991 C162.80151971 419.38118788 168.55616052 419.38112121 174.31088257 419.37390327 C176.40688124 419.37286808 178.50288502 419.37515584 180.59887505 419.38126373 C214.34838621 419.47313697 244.28418858 415.85027908 269.37524414 391.19189453 C273.95488464 386.53139013 277.93487581 381.88179606 281.06274414 376.12939453 C281.63508789 375.07751953 282.20743164 374.02564453 282.79711914 372.94189453 C290.94078306 357.1448863 294.22046719 339.81356831 294.20318604 322.15301514 C294.20615716 321.18825673 294.20912828 320.22349833 294.21218944 319.22950482 C294.22081632 316.01741482 294.22237959 312.80536236 294.22387695 309.59326172 C294.22850956 307.28120851 294.23353481 304.96915606 294.23892212 302.65710449 C294.25200951 296.3878326 294.25848446 290.1185714 294.26293278 283.84928799 C294.26587072 279.92415411 294.26997698 275.99902311 294.27443695 272.07389069 C294.28654107 261.17733748 294.29692352 250.28078745 294.30031204 239.38422775 C294.30053161 238.68803517 294.30075117 237.99184258 294.30097739 237.27455325 C294.30119567 236.57681318 294.30141395 235.8790731 294.30163884 235.16018939 C294.30208229 233.74660412 294.30252885 232.33301886 294.30297852 230.91943359 C294.30319995 230.21826531 294.30342138 229.51709703 294.30364951 228.79468122 C294.30758844 217.46065648 294.32501681 206.12669639 294.34833804 194.79269657 C294.37216318 183.11814959 294.38451902 171.44363488 294.38567996 159.76906323 C294.38672278 153.22976017 294.39251796 146.6905483 294.41049957 140.15126801 C294.42711589 133.98865038 294.42907068 127.82619116 294.42036057 121.66355896 C294.41959727 119.41801272 294.42383787 117.17245748 294.43381882 114.92693329 C294.56768769 82.89620256 289.74894811 55.48315322 266.81274414 31.50439453 C242.16892005 7.00365275 207.42415211 5.79907901 174.79492188 5.87060547 C172.66814048 5.86788588 170.54136002 5.86431958 168.4145813 5.85998535 C162.71008645 5.85097462 157.00566506 5.85435803 151.30116916 5.86074352 C145.28794094 5.86586221 139.27471837 5.86109603 133.26148987 5.85797119 C123.17089731 5.85434874 113.08033417 5.85908549 102.98974609 5.86865234 C91.37672774 5.87953649 79.76377964 5.87600458 68.15076298 5.86499953 C58.12119338 5.85588088 48.09164475 5.85466355 38.06207234 5.85987687 C32.0975521 5.86297115 26.13306472 5.86347672 20.16854668 5.85680389 C14.55815391 5.85096384 8.94785046 5.85514716 3.33746719 5.86659241 C1.29671056 5.86920367 -0.74405379 5.86853571 -2.78480721 5.86406708 C-12.97598886 5.84383406 -23.06706998 6.07590554 -33.21934509 7.02056885 Z " fill="#000000" transform="translate(167.937255859375,42.87060546875)"/>
<path d="M0 0 C0.94351318 0.19682373 1.88702637 0.39364746 2.85913086 0.59643555 C11.56591139 2.5308487 21.48436044 5.10936044 28 11.625 C28.76576389 20.1150693 27.38822194 27.55541047 24.875 35.625 C24.56022705 36.67083252 24.2454541 37.71666504 23.92114258 38.79418945 C21.89433074 45.32468818 19.61151579 51.38089923 16.26171875 57.35546875 C14.95102087 59.59614662 14.95102087 59.59614662 14.05859375 62.01171875 C6.59055503 80.44757818 -7.22106158 99.10905125 -25.3125 107.8125 C-40.64868064 114.16492144 -55.48111616 114.02966826 -71 108.625 C-86.87822356 101.95811855 -97.10527375 89.21488178 -103.8125 73.66796875 C-109.48096203 59.1425348 -107.99733737 43.36302422 -102.3125 29.0625 C-95.58813722 15.00246874 -84.35818781 4.32226996 -69.75 -1.0625 C-47.37293074 -7.79474648 -22.47997466 -4.73537755 0 0 Z " fill="#BDFC2E" transform="translate(219,256.375)"/>
<path d="M0 0 C0.92941406 -0.00322266 1.85882813 -0.00644531 2.81640625 -0.00976562 C9.12390055 0.03861822 14.99166834 0.85627135 21.125 2.3125 C21.125 2.9725 21.125 3.6325 21.125 4.3125 C21.82882812 4.41175781 22.53265625 4.51101562 23.2578125 4.61328125 C36.64061496 7.87693471 47.07029127 19.12272791 54.125 30.3125 C60.99780566 45.01900122 62.50341347 60.52394244 57.78125 76.19140625 C51.0744688 94.09259431 39.49564361 110.91180206 27.125 125.3125 C26.38121094 126.18003906 25.63742187 127.04757813 24.87109375 127.94140625 C12.13175087 142.45317944 12.13175087 142.45317944 5.125 145.3125 C-3.21836607 145.64623464 -8.41793905 139.50229237 -14.19921875 134.16796875 C-34.46167584 114.54202863 -56.89301331 85.30628181 -57.375 56.125 C-57.31408584 48.86479344 -56.00329039 42.91284894 -52.875 36.3125 C-52.194375 34.4871875 -52.194375 34.4871875 -51.5 32.625 C-49.43585496 28.41731974 -46.77872713 24.96933283 -43.875 21.3125 C-43.276875 20.466875 -42.67875 19.62125 -42.0625 18.75 C-35.64112915 11.5947582 -27.59377961 7.14832213 -18.875 3.3125 C-17.99908203 2.90318237 -17.99908203 2.90318237 -17.10546875 2.4855957 C-11.39483164 0.03289447 -6.15591923 -0.10584455 0 0 Z " fill="#01D5FC" transform="translate(253.875,103.6875)"/>
<path d="M0 0 C2.35217497 -0.009645 4.70345117 -0.04071873 7.05541992 -0.07226562 C23.11723023 -0.18743162 36.55620802 1.47053266 49.8190918 11.24023438 C50.52807617 11.75972656 51.23706055 12.27921875 51.9675293 12.81445312 C59.86725692 19.11008758 65.13327723 27.81558432 68.4440918 37.24023438 C68.86948242 38.43648438 69.29487305 39.63273437 69.7331543 40.86523438 C73.96417212 54.01487249 72.99002662 69.63333317 66.92358398 82.07714844 C60.64528573 93.69603671 51.89842547 103.4390027 40.2565918 109.80273438 C39.66797363 110.1254834 39.07935547 110.44823242 38.47290039 110.78076172 C25.97439272 117.09677011 7.39512762 117.72806707 -5.8684082 113.67773438 C-25.63028467 105.5907417 -36.44836312 89.15431022 -46.18481445 71.06787109 C-47.05231478 69.4761781 -47.95724897 67.90500015 -48.8684082 66.33789062 C-57.18027852 51.94363604 -63.30215905 34.44896104 -63.9074707 17.82617188 C-62.83573976 14.01173162 -60.43897232 12.22780938 -57.1809082 10.24023438 C-54.4337625 8.95661844 -51.63736904 8.01207293 -48.7434082 7.11523438 C-47.95716064 6.86298096 -47.17091309 6.61072754 -46.36083984 6.35083008 C-31.09242236 1.59070355 -15.91879858 0.03928547 0 0 Z " fill="#FE4968" transform="translate(327.180908203125,252.759765625)"/>
<path d="M0 0 C0.77209305 -0.0033284 1.5441861 -0.0066568 2.3396759 -0.01008606 C3.9555299 -0.01510459 5.57139408 -0.01749598 7.18725586 -0.01733398 C9.64909795 -0.01953533 12.11050159 -0.03778498 14.57226562 -0.05664062 C16.15234224 -0.05957275 17.73242095 -0.06155876 19.3125 -0.0625 C20.40488228 -0.07327827 20.40488228 -0.07327827 21.51933289 -0.08427429 C25.87738163 -0.06487725 29.40559715 0.56494616 33.45703125 2.16796875 C33.45703125 2.49796875 33.45703125 2.82796875 33.45703125 3.16796875 C32.56097168 3.15749512 31.66491211 3.14702148 30.74169922 3.13623047 C27.34583856 3.10169036 23.95017048 3.07685117 20.55419922 3.05810547 C19.09778863 3.04818485 17.64139718 3.03464407 16.18505859 3.01708984 C6.39030693 2.90217557 -2.865591 3.47055248 -12.54296875 5.16796875 C-11.23046875 5.43880208 -9.91796875 5.70963542 -8.60546875 5.98046875 C-6.390625 6.4375 -6.390625 6.4375 -4.54296875 7.16796875 C-4.04796875 8.65296875 -4.04796875 8.65296875 -3.54296875 10.16796875 C-5.39148438 10.24144531 -5.39148438 10.24144531 -7.27734375 10.31640625 C-28.01306884 10.47870366 -28.01306884 10.47870366 -46.1953125 18.90625 C-49.14986437 23.86475879 -47.99010157 30.58945453 -47.54296875 36.16796875 C-46.88296875 36.16796875 -46.22296875 36.16796875 -45.54296875 36.16796875 C-45.41921875 37.41449219 -45.29546875 38.66101563 -45.16796875 39.9453125 C-42.58308684 62.45291596 -31.90382068 79.97799824 -17.54296875 97.16796875 C-16.20649798 98.83212062 -14.87236165 100.49815736 -13.54296875 102.16796875 C-19.27834305 101.51849257 -21.38089345 98.72955812 -25.015625 94.49609375 C-30.22345403 87.86981385 -34.36107273 80.46407641 -38.54296875 73.16796875 C-39.12208008 72.16660889 -39.12208008 72.16660889 -39.71289062 71.14501953 C-48.96070141 55.01904645 -56.58701928 36.49673507 -57.26953125 17.75390625 C-56.1978003 13.939466 -53.80103287 12.15554375 -50.54296875 10.16796875 C-47.79582305 8.88435281 -44.99942959 7.93980731 -42.10546875 7.04296875 C-41.31922119 6.79071533 -40.53297363 6.53846191 -39.72290039 6.27856445 C-26.77948357 2.24328694 -13.55838626 0.02089236 0 0 Z " fill="#E7C4C3" transform="translate(320.54296875,252.83203125)"/>
<path d="M0 0 C0.66 0 1.32 0 2 0 C2.74443359 1.54107422 2.74443359 1.54107422 3.50390625 3.11328125 C11.34960493 19.19005404 20.7589435 33.57799849 32.94921875 46.7578125 C34.71231654 48.68546609 36.3608732 50.65552462 38 52.6875 C42.09276429 57.47376046 46.87714131 62.06518348 52.98828125 63.89453125 C57.80296555 64.06313887 59.79922146 61.58278333 63.3046875 58.54296875 C79.7277005 43.04821301 93.36039062 23.90141524 102 3 C102.66 3 103.32 3 104 3 C103.50983447 8.3918208 102.0967208 12.44859205 99.4375 17.1875 C98.90177368 18.16251465 98.90177368 18.16251465 98.35522461 19.15722656 C92.55394854 29.55600438 85.75472086 38.97270956 78 48 C77.25621094 48.86753906 76.51242187 49.73507813 75.74609375 50.62890625 C63.00675087 65.14067944 63.00675087 65.14067944 56 68 C47.65663393 68.33373464 42.45706095 62.18979237 36.67578125 56.85546875 C23.57189617 44.16322404 12.38720043 28.79800226 3.75 12.75 C3.36714844 12.0472998 2.98429688 11.34459961 2.58984375 10.62060547 C0.68995541 6.95691631 -0.4829719 4.15355834 0 0 Z " fill="#9AF2F4" transform="translate(203,181)"/>
<path d="M0 0 C1.96350977 3.5659143 2.03824471 5.03579291 1 9 C0.61709538 10.99110401 0.27395385 12.99100513 0 15 C0.33 15.33 0.66 15.66 1 16 C1.57107755 18.37307875 2.08544989 20.73290186 2.5625 23.125 C2.70107422 23.77726562 2.83964844 24.42953125 2.98242188 25.1015625 C3.86047134 29.46153225 4.13263149 33.55972846 4 38 C4.66 38 5.32 38 6 38 C6.28875 39.134375 6.5775 40.26875 6.875 41.4375 C7.24625 42.613125 7.6175 43.78875 8 45 C8.66 45.33 9.32 45.66 10 46 C10.26554687 46.76957031 10.53109375 47.53914063 10.8046875 48.33203125 C12.31560578 51.70444036 14.0313662 52.72643584 17.125 54.6875 C18.78065361 55.74514841 20.41505423 56.83907109 22 58 C22 58.66 22 59.32 22 60 C22.763125 60.144375 23.52625 60.28875 24.3125 60.4375 C27 61 27 61 30 62 C30 62.66 30 63.32 30 64 C30.825 64.268125 31.65 64.53625 32.5 64.8125 C36 66 36 66 39.5 67.5 C45.40655892 69.77264083 51.7553989 70.25450689 58 71 C58 71.33 58 71.66 58 72 C57.28972656 72.06058594 56.57945312 72.12117188 55.84765625 72.18359375 C54.46900391 72.30927734 54.46900391 72.30927734 53.0625 72.4375 C52.14597656 72.51871094 51.22945312 72.59992188 50.28515625 72.68359375 C48.03840268 72.76044976 48.03840268 72.76044976 47 74 C34.48653993 74.36727136 23.15062521 68.05040341 14 60 C2.62131126 48.65467985 -4.13553859 35.41598852 -4.3125 19.3125 C-4.34150391 18.45205078 -4.37050781 17.59160156 -4.40039062 16.70507812 C-4.46320522 10.2931572 -3.0305303 5.63375498 0 0 Z " fill="#B5F112" transform="translate(117,294)"/>
<path d="M0 0 C16.52620824 -0.48899672 31.91714308 0.02855695 48 4 C49.14082031 4.27328125 50.28164062 4.5465625 51.45703125 4.828125 C68.11130295 9.11130295 68.11130295 9.11130295 74 15 C74.76576389 23.4900693 73.38822194 30.93041047 70.875 39 C70.56022705 40.04583252 70.2454541 41.09166504 69.92114258 42.16918945 C67.89433074 48.69968818 65.61151579 54.75589923 62.26171875 60.73046875 C60.95166741 62.9689569 60.95166741 62.9689569 60.06640625 65.375 C58.72504356 68.67681586 57.02141033 71.72832941 55.25 74.8125 C54.89800537 75.42689941 54.54601074 76.04129883 54.18334961 76.67431641 C51.46539735 81.34685494 48.62315 85.96313391 45 90 C44.67 90 44.34 90 44 90 C43.73094383 86.10541187 44.13622383 84.27423963 46.5 81.1875 C50.79214922 75.11963893 53.86151451 68.50009298 57.09667969 61.83300781 C58.24288926 59.50713175 59.4701343 57.22676002 60.6875 54.9375 C66.74186542 42.82876916 70.50884731 29.54099221 70 16 C52.92673592 7.36787991 32.91162104 4.27947807 14 3 C12.4986849 2.88949958 10.99738268 2.77882411 9.49609375 2.66796875 C5.99885737 2.41805227 2.50055457 2.19883569 -1 2 C-0.67 1.34 -0.34 0.68 0 0 Z " fill="#EBEFD0" transform="translate(173,253)"/>
<path d="M0 0 C13.0443129 2.01085252 24.77610339 9.76872453 32.7890625 20.19921875 C36.47990124 25.26893825 39.07946262 30.202643 41.1640625 36.13671875 C41.80214844 37.93109375 41.80214844 37.93109375 42.453125 39.76171875 C46.68414282 52.91135686 45.70999733 68.52981754 39.64355469 80.97363281 C34.48494198 90.52038293 26.19861012 102.68578607 15.5390625 106.13671875 C15.5390625 103.13671875 15.5390625 103.13671875 17.7265625 100.76171875 C18.6546875 99.89546875 19.5828125 99.02921875 20.5390625 98.13671875 C22.22723183 96.49183581 23.89259565 94.82334333 25.5390625 93.13671875 C26.250625 92.43675781 26.250625 92.43675781 26.9765625 91.72265625 C38.4409469 79.60145816 40.2760787 63.82542629 40.00390625 47.9609375 C39.60607742 40.15561217 37.06190841 34.0457905 33.5390625 27.13671875 C33.0440625 25.65171875 33.0440625 25.65171875 32.5390625 24.13671875 C31.8790625 24.13671875 31.2190625 24.13671875 30.5390625 24.13671875 C27.5390625 20.67518029 27.5390625 20.67518029 27.5390625 18.13671875 C26.8790625 18.13671875 26.2190625 18.13671875 25.5390625 18.13671875 C25.5390625 17.47671875 25.5390625 16.81671875 25.5390625 16.13671875 C24.8790625 16.13671875 24.2190625 16.13671875 23.5390625 16.13671875 C23.5390625 15.47671875 23.5390625 14.81671875 23.5390625 14.13671875 C22.95511719 13.85699219 22.37117188 13.57726562 21.76953125 13.2890625 C19.68028242 12.20967825 17.80033116 11.01065426 15.8515625 9.69921875 C9.15726615 5.48889136 2.34710911 3.84654117 -5.4609375 3.13671875 C-3.70039433 0.83856005 -2.94819106 0.16378839 0 0 Z " fill="#EC146D" transform="translate(354.4609375,253.86328125)"/>
<path d="M0 0 C7.32465656 -0.26760228 13.96088406 0.70380089 21.125 2.1875 C22.22360352 2.41163574 23.32220703 2.63577148 24.45410156 2.86669922 C46.92523167 7.60355262 46.92523167 7.60355262 54 13 C55.92633613 19.79286953 53.02752341 27.5188568 51 34 C50.69835937 35.06734375 50.39671875 36.1346875 50.0859375 37.234375 C48.29857612 43.42474856 46.18666647 49.0710189 43.171875 54.765625 C41.59345906 57.77513805 40.29675755 60.86048172 39 64 C38.01 63.67 37.02 63.34 36 63 C36.66666667 61 37.33333333 59 38 57 C38.28875 56.113125 38.5775 55.22625 38.875 54.3125 C39.53364871 52.37314548 40.21391933 50.44045068 40.9453125 48.52734375 C43.27451575 42.39377518 44.88686777 36.45837117 46 30 C46.33281716 28.33323018 46.66618035 26.66656933 47 25 C47.35808216 23.06321983 47.71222167 21.12570674 48.0625 19.1875 C48.23910156 18.21167969 48.41570312 17.23585938 48.59765625 16.23046875 C48.79681641 15.12638672 48.79681641 15.12638672 49 14 C45.98968256 13.06576355 45.13349732 12.95550089 42 14 C40.11138479 13.0556924 38.22569065 12.10483629 36.359375 11.1171875 C30.25353817 8.22601311 23.56976486 7.0386859 16.9375 6 C11.52032573 5.15135651 6.0790249 4.12957019 1 2 C0.67 1.34 0.34 0.68 0 0 Z " fill="#F6FA71" transform="translate(190,256)"/>
<path d="M0 0 C0.69480469 0.14179688 1.38960938 0.28359375 2.10546875 0.4296875 C4.09386749 0.85497354 6.04976384 1.42452048 8 2 C8.495 3.485 8.495 3.485 9 5 C7.15148437 5.07347656 7.15148437 5.07347656 5.265625 5.1484375 C-15.47010009 5.31073491 -15.47010009 5.31073491 -33.65234375 13.73828125 C-36.60689562 18.69679004 -35.44713282 25.42148578 -35 31 C-34.34 31 -33.68 31 -33 31 C-32.34 36.94 -31.68 42.88 -31 49 C-33.22457584 46.77542416 -33.70911463 45.37533475 -34.69140625 42.421875 C-34.99626953 41.50792969 -35.30113281 40.59398437 -35.61523438 39.65234375 C-35.92783203 38.69457031 -36.24042969 37.73679687 -36.5625 36.75 C-36.87896484 35.80769531 -37.19542969 34.86539063 -37.52148438 33.89453125 C-39.04492306 29.28216698 -40.42180547 24.84237915 -41 20 C-41.10183594 19.20335937 -41.20367187 18.40671875 -41.30859375 17.5859375 C-41.35113281 16.85632813 -41.39367187 16.12671875 -41.4375 15.375 C-41.49808594 14.64023437 -41.55867188 13.90546875 -41.62109375 13.1484375 C-41 11 -41 11 -38.47265625 8.88671875 C-34.68858529 6.83080618 -31.1332006 5.56769786 -27 4.4375 C-26.26177002 4.22915527 -25.52354004 4.02081055 -24.76293945 3.80615234 C-5.00662046 -1.66887349 -5.00662046 -1.66887349 0 0 Z " fill="#FFBF8F" transform="translate(308,258)"/>
<path d="M0 0 C1.51980469 0.02030273 1.51980469 0.02030273 3.0703125 0.04101562 C5.54744404 0.07606937 8.02342927 0.12520236 10.5 0.1875 C6.70014789 3.33444762 3.80199109 3.57510918 -1 3.625 C-7.42973959 3.84191394 -12.80674568 4.89442668 -18.8515625 7.25 C-21.72208954 8.26611577 -24.48982189 8.76377991 -27.5 9.1875 C-27.83 10.1775 -28.16 11.1675 -28.5 12.1875 C-30.3203125 13.73046875 -30.3203125 13.73046875 -32.625 15.375 C-42.00044642 22.52526135 -46.6449424 30.68050604 -51.5 41.1875 C-52.16 41.1875 -52.82 41.1875 -53.5 41.1875 C-54.16 43.1675 -54.82 45.1475 -55.5 47.1875 C-57.41936628 42.2331358 -54.97314009 38.17428361 -53.09765625 33.51953125 C-50.84170958 28.81458625 -47.90851884 25.09945625 -44.5 21.1875 C-43.88125 20.32125 -43.2625 19.455 -42.625 18.5625 C-36.24113722 11.42759455 -28.177961 7.00536401 -19.5 3.1875 C-18.92330566 2.91317139 -18.34661133 2.63884277 -17.75244141 2.35620117 C-11.85418407 -0.21039504 -6.35593942 -0.16265199 0 0 Z " fill="#0ADAFA" transform="translate(254.5,103.8125)"/>
<path d="M0 0 C13.0443129 2.01085252 24.77610339 9.76872453 32.7890625 20.19921875 C33.71748415 21.50343011 34.6357461 22.81499506 35.5390625 24.13671875 C36.0753125 24.92046875 36.6115625 25.70421875 37.1640625 26.51171875 C40.55110421 32.97788929 43.18123419 38.75174435 42.5390625 46.13671875 C39.454094 44.5942345 39.25473327 42.12852134 38.1015625 38.94921875 C36.83146759 35.46541611 35.54607494 32.15066112 33.87890625 28.8359375 C32.5390625 26.13671875 32.5390625 26.13671875 32.5390625 24.13671875 C31.8790625 24.13671875 31.2190625 24.13671875 30.5390625 24.13671875 C27.5390625 20.67518029 27.5390625 20.67518029 27.5390625 18.13671875 C26.8790625 18.13671875 26.2190625 18.13671875 25.5390625 18.13671875 C25.5390625 17.47671875 25.5390625 16.81671875 25.5390625 16.13671875 C24.8790625 16.13671875 24.2190625 16.13671875 23.5390625 16.13671875 C23.5390625 15.47671875 23.5390625 14.81671875 23.5390625 14.13671875 C22.95511719 13.85699219 22.37117188 13.57726562 21.76953125 13.2890625 C19.68028242 12.20967825 17.80033116 11.01065426 15.8515625 9.69921875 C9.15726615 5.48889136 2.34710911 3.84654117 -5.4609375 3.13671875 C-3.70039433 0.83856005 -2.94819106 0.16378839 0 0 Z " fill="#ED2291" transform="translate(354.4609375,253.86328125)"/>
<path d="M0 0 C0.66 0 1.32 0 2 0 C2.74443359 1.54107422 2.74443359 1.54107422 3.50390625 3.11328125 C11.82288042 20.15985199 22.00340633 35.1123869 35 49 C34.34 50.32 33.68 51.64 33 53 C21.74764736 41.19197563 0.63051327 19.02892017 -0.125 2.21875 C-0.08375 1.4865625 -0.0425 0.754375 0 0 Z " fill="#86EEF3" transform="translate(203,181)"/>
<path d="M0 0 C0 3.2356751 -0.58718901 4.18940793 -2 7 C-2.58756649 9.00796807 -3.12646593 11.03059599 -3.625 13.0625 C-3.88539063 14.10535156 -4.14578125 15.14820313 -4.4140625 16.22265625 C-5.1032133 19.01615127 -5.1032133 19.01615127 -5 22 C-4.34 21.34 -3.68 20.68 -3 20 C-3.185625 21.2375 -3.37125 22.475 -3.5625 23.75 C-3.94396895 26.80175156 -4.04851604 29.06415509 -3 32 C-1.71205302 36.00694616 -1.93042508 39.82550506 -2 44 C-4.83374881 40.79663178 -5.5205537 38.21912747 -6 34 C-6.66 34 -7.32 34 -8 34 C-10.10575375 28.47239641 -11.37851209 23.93002267 -11 18 C-10.34 18 -9.68 18 -9 18 C-8.90203125 17.09636719 -8.8040625 16.19273437 -8.703125 15.26171875 C-8.55359375 14.08222656 -8.4040625 12.90273438 -8.25 11.6875 C-8.11078125 10.51574219 -7.9715625 9.34398437 -7.828125 8.13671875 C-7 5 -7 5 -5.109375 3.20703125 C-4.41328125 2.80871094 -3.7171875 2.41039062 -3 2 C-2.01 1.34 -1.02 0.68 0 0 Z " fill="#74FD04" transform="translate(137,282)"/>
<path d="M0 0 C4.67819738 -0.73096834 7.03802523 1.15242888 10.75390625 3.625 C22.04135846 10.53488379 36.16625707 11.93031042 49 9.125 C50.33863408 8.76938563 51.67254323 8.395299 53 8 C53.69222656 7.80921875 54.38445312 7.6184375 55.09765625 7.421875 C56.73681002 6.9656493 58.36934486 6.48572706 60 6 C60 6.99 60 7.98 60 9 C58.80375 9.474375 57.6075 9.94875 56.375 10.4375 C55.36566406 10.83775391 55.36566406 10.83775391 54.3359375 11.24609375 C42.69588846 15.00283198 25.93018644 14.93217226 14.625 10.34765625 C1.90990991 3.81981982 1.90990991 3.81981982 0 0 Z " fill="#F5279B" transform="translate(304,355)"/>
<path d="M0 0 C2.787367 2.787367 3.97746669 6.19876693 5.5625 9.75 C11.19440907 22.01265072 18.3428834 32.6374129 27 43 C28.33647077 44.66415187 29.6706071 46.33018861 31 48 C25.2646257 47.35052382 23.1620753 44.56158937 19.52734375 40.328125 C12.35442141 31.20152141 6.80744314 20.69059908 1.3125 10.5 C0.973396 9.87134033 0.63429199 9.24268066 0.28491211 8.5949707 C-2 4.25333506 -2 4.25333506 -2 2 C-1.34 2 -0.68 2 0 2 C0 1.34 0 0.68 0 0 Z " fill="#F0B6C4" transform="translate(276,307)"/>
<path d="M0 0 C0 0.33 0 0.66 0 1 C-8.415 1.495 -8.415 1.495 -17 2 C-14.16796875 2.71614583 -11.3359375 3.43229167 -8.50390625 4.1484375 C-6 5 -6 5 -5 7 C-5.83144531 6.98839844 -6.66289062 6.97679687 -7.51953125 6.96484375 C-9.14955078 6.95130859 -9.14955078 6.95130859 -10.8125 6.9375 C-12.43091797 6.92009766 -12.43091797 6.92009766 -14.08203125 6.90234375 C-17.06512169 6.86375234 -17.06512169 6.86375234 -20 8 C-20.99 7.67 -21.98 7.34 -23 7 C-25.33299825 6.96045766 -27.66708189 6.95598268 -30 7 C-30 6.34 -30 5.68 -30 5 C-33.63 4.67 -37.26 4.34 -41 4 C-30.40345846 -3.06436103 -12.17565634 -0.1950746 0 0 Z " fill="#FF696F" transform="translate(346,255)"/>
<path d="M0 0 C0.845625 0.598125 1.69125 1.19625 2.5625 1.8125 C5.88399232 4.0400402 9.29204553 5.51681821 13 7 C13 7.99 13 8.98 13 10 C13.66 10 14.32 10 15 10 C15.84584998 11.55575978 16.67618399 13.1199612 17.5 14.6875 C17.9640625 15.55761719 18.428125 16.42773438 18.90625 17.32421875 C20.04818792 20.11788829 20.21504208 22.01629113 20 25 C11.51265995 20.37596588 4.45067 11.53481423 0 3 C0 2.01 0 1.02 0 0 Z " fill="#FF4052" transform="translate(290,331)"/>
<path d="M0 0 C0.33 0.66 0.66 1.32 1 2 C1.66 2 2.32 2 3 2 C2.44694792 6.58145611 1.21146825 9.99049415 -0.9375 14.0625 C-3.10285776 18.18259247 -3.10285776 18.18259247 -4.95703125 22.4453125 C-6.29400381 25.72014415 -7.99170861 28.75117055 -9.75 31.8125 C-10.10199463 32.42689941 -10.45398926 33.04129883 -10.81665039 33.67431641 C-13.53460265 38.34685494 -16.37685 42.96313391 -20 47 C-20.33 47 -20.66 47 -21 47 C-21.26905617 43.10541187 -20.86377617 41.27423963 -18.5 38.1875 C-14.21560412 32.13059992 -11.14706676 25.52283323 -7.91650391 18.86816406 C-6.69145699 16.37107856 -5.40495333 13.90679049 -4.125 11.4375 C-2.23854349 7.6836421 -0.97639472 4.08310521 0 0 Z " fill="#E2EDA0" transform="translate(238,296)"/>
<path d="M0 0 C0.69480469 0.14179688 1.38960938 0.28359375 2.10546875 0.4296875 C4.09386749 0.85497354 6.04976384 1.42452048 8 2 C8.495 3.485 8.495 3.485 9 5 C7.83726562 5.04898437 6.67453125 5.09796875 5.4765625 5.1484375 C-3.79906172 5.57107722 -12.99149965 6.21644582 -22.21044922 7.33935547 C-25.51580314 7.74030301 -28.66249621 8 -32 8 C-32 7.34 -32 6.68 -32 6 C-5.62167408 -1.89746232 -5.62167408 -1.89746232 0 0 Z " fill="#FFAD83" transform="translate(308,258)"/>
<path d="M0 0 C1.01320312 0.00451172 2.02640625 0.00902344 3.0703125 0.01367188 C5.54693827 0.02535407 8.02343657 0.04173418 10.5 0.0625 C10.5 0.3925 10.5 0.7225 10.5 1.0625 C2.58 1.5575 2.58 1.5575 -5.5 2.0625 C1.43 2.5575 1.43 2.5575 8.5 3.0625 C8.5 3.3925 8.5 3.7225 8.5 4.0625 C7.50371582 4.092229 7.50371582 4.092229 6.48730469 4.12255859 C-15.28366295 4.11624047 -15.28366295 4.11624047 -35.44140625 11.13671875 C-37.5 12.0625 -37.5 12.0625 -40.5 11.0625 C-39.5 8.0625 -39.5 8.0625 -37.8203125 7 C-25.31267156 1.65865867 -13.51040239 -0.11524621 0 0 Z " fill="#C9DC70" transform="translate(178.5,251.9375)"/>
<path d="M0 0 C0.66 0 1.32 0 2 0 C1.50980991 5.39209104 0.09617379 9.44809776 -2.5625 14.1875 C-2.91747559 14.83533447 -3.27245117 15.48316895 -3.63818359 16.15063477 C-8.70444137 25.25047327 -14.61648522 33.77880673 -21 42 C-21.33 41.34 -21.66 40.68 -22 40 C-22.66 39.67 -23.32 39.34 -24 39 C-23.40574219 38.28199219 -22.81148438 37.56398437 -22.19921875 36.82421875 C-16.8866453 30.24715963 -12.28942868 23.45096297 -8.0625 16.125 C-7.60254639 15.32924561 -7.14259277 14.53349121 -6.66870117 13.71362305 C-4.13309589 9.23988 -1.92630585 4.76808379 0 0 Z " fill="#73EDF4" transform="translate(305,184)"/>
<path d="M0 0 C2.31 0.33 4.62 0.66 7 1 C7 1.66 7 2.32 7 3 C7.70382812 3.09925781 8.40765625 3.19851562 9.1328125 3.30078125 C22.70795055 6.61133944 32.63505835 17.84403396 40 29 C40 29.66 40 30.32 40 31 C38.68 31 37.36 31 36 31 C34.4375 29.20703125 34.4375 29.20703125 33 26.8125 C32.21882813 25.57306641 32.21882813 25.57306641 31.421875 24.30859375 C30.71804688 23.16583984 30.71804688 23.16583984 30 22 C24.110779 13.1661685 12.89188769 7.2972959 3 4 C3 3.01 3 2.02 3 1 C2.01 0.67 1.02 0.34 0 0 Z " fill="#0CCFED" transform="translate(268,105)"/>
<path d="M0 0 C15.31881369 -0.33257278 29.9902849 -0.29625116 45 3 C45.495 4.98 45.495 4.98 46 7 C41.29141535 6.53686053 36.70015808 5.96811436 32.0625 5.03125 C25.34643074 3.79002237 18.62048984 3.3227492 11.8125 2.875 C10.57435547 2.78863281 9.33621094 2.70226562 8.06054688 2.61328125 C5.04069471 2.40340735 2.02057905 2.19908871 -1 2 C-0.67 1.34 -0.34 0.68 0 0 Z " fill="#EDF3C2" transform="translate(173,253)"/>
<path d="M0 0 C0.99 0.33 1.98 0.66 3 1 C3.3721042 2.32303717 3.70630173 3.65737935 4 5 C4.66 5.33 5.32 5.66 6 6 C6 6.99 6 7.98 6 9 C7.32 9 8.64 9 10 9 C10.67154933 10.28913487 11.33708859 11.58140204 12 12.875 C12.37125 13.59429687 12.7425 14.31359375 13.125 15.0546875 C14 17 14 17 14 19 C14.66 19 15.32 19 16 19 C16 19.66 16 20.32 16 21 C17.32 21.33 18.64 21.66 20 22 C20 23.65 20 25.3 20 27 C17.11919043 25.82633684 15.65742801 24.64907259 13.4375 22.375 C11.2090916 19.65106764 11.2090916 19.65106764 8 20 C6.65722268 17.2336466 5.32744772 14.46123789 4 11.6875 C3.42765625 10.50897461 3.42765625 10.50897461 2.84375 9.30664062 C2.4828125 8.54931641 2.121875 7.79199219 1.75 7.01171875 C1.41484375 6.31522217 1.0796875 5.61872559 0.734375 4.90112305 C0 3 0 3 0 0 Z " fill="#FF776C" transform="translate(277,306)"/>
<path d="M0 0 C0.99 0 1.98 0 3 0 C1.90301833 5.69139902 0.45946923 10.74567937 -2 16 C-2.66 16 -3.32 16 -4 16 C-4.12375 16.928125 -4.2475 17.85625 -4.375 18.8125 C-5 22 -5 22 -7 25 C-7.29991069 27.58885171 -7.50865225 30.09149082 -7.625 32.6875 C-7.66367188 33.38939453 -7.70234375 34.09128906 -7.7421875 34.81445312 C-7.8362334 36.54254655 -7.9191968 38.27123675 -8 40 C-8.33 40 -8.66 40 -9 40 C-9.49330839 25.6027032 -8.22343029 12.33514544 0 0 Z " fill="#B0DB1C" transform="translate(121,278)"/>
<path d="M0 0 C7.61927783 -0.30670822 14.54932713 0.83824476 22 2.375 C23.14339844 2.59671875 24.28679687 2.8184375 25.46484375 3.046875 C26.54894531 3.26601563 27.63304687 3.48515625 28.75 3.7109375 C30.22726563 4.00943604 30.22726563 4.00943604 31.734375 4.31396484 C32.85585937 4.65355225 32.85585937 4.65355225 34 5 C34.495 5.99 34.495 5.99 35 7 C29.52173217 8.062626 25.14041403 7.82022691 19.6875 6.75 C18.94564453 6.61086182 18.20378906 6.47172363 17.43945312 6.32836914 C5.60714577 4.03695565 5.60714577 4.03695565 1 2 C0.67 1.34 0.34 0.68 0 0 Z " fill="#E9FA4F" transform="translate(190,256)"/>
<path d="M0 0 C0.66 1.32 1.32 2.64 2 4 C-6.8874836 14.29237792 -14.85241092 21.61747031 -28 26 C-26.52886587 22.065767 -24.65862946 21.02944306 -20.9375 19.25 C-12.00885683 14.59869113 -5.62263645 8.29063257 0 0 Z " fill="#D5F136" transform="translate(216,340)"/>
<path d="M0 0 C1.56996981 4.93103195 0.29466906 8.48126708 -2 13 C-6.73335566 19.29833938 -12.59909804 25.36433479 -19 30 C-19.66 30 -20.32 30 -21 30 C-21 27 -21 27 -18.8125 24.625 C-17.884375 23.75875 -16.95625 22.8925 -16 22 C-8.99448125 15.17410993 -4.0707627 8.9520755 0 0 Z " fill="#FB106A" transform="translate(391,330)"/>
<path d="M0 0 C1.96350977 3.5659143 2.03824471 5.03579291 1 9 C0.61709538 10.99110401 0.27395385 12.99100513 0 15 C0.33 15.33 0.66 15.66 1 16 C1.57107755 18.37307875 2.08544989 20.73290186 2.5625 23.125 C2.70107422 23.77726562 2.83964844 24.42953125 2.98242188 25.1015625 C3.86047134 29.46153225 4.13263149 33.55972846 4 38 C4.66 38 5.32 38 6 38 C6 39.65 6 41.3 6 43 C3.72021745 40.17306964 2.20980494 37.49879831 0.875 34.125 C0.54242188 33.30257812 0.20984375 32.48015625 -0.1328125 31.6328125 C-3.46849512 21.50555986 -2.80181313 10.15657261 0 0 Z " fill="#53FF00" transform="translate(117,294)"/>
<path d="M0 0 C-2.56490413 1.70993609 -3.98062689 2.41075634 -6.8359375 3.18359375 C-7.57070313 3.38919922 -8.30546875 3.59480469 -9.0625 3.80664062 C-10.59590438 4.22495956 -12.12975548 4.64164461 -13.6640625 5.05664062 C-19.70385156 6.73451595 -19.70385156 6.73451595 -25 10 C-25.8106196 12.25339498 -25.8106196 12.25339498 -25.8125 14.6875 C-25.86019531 15.49574219 -25.90789062 16.30398438 -25.95703125 17.13671875 C-25.97121094 17.75160156 -25.98539062 18.36648438 -26 19 C-26.66 19 -27.32 19 -28 19 C-28.47612457 14.23875433 -28.52588365 10.9610977 -26.1875 6.6875 C-20.52294281 0.89420287 -7.75366044 -2.90762266 0 0 Z " fill="#F0D9CC" transform="translate(293,259)"/>
<path d="M0 0 C0.66 0.33 1.32 0.66 2 1 C1.07316406 1.88042969 0.14632812 2.76085937 -0.80859375 3.66796875 C-2.0187539 4.84060455 -3.22836055 6.01381176 -4.4375 7.1875 C-5.04916016 7.76564453 -5.66082031 8.34378906 -6.29101562 8.93945312 C-9.64066002 12.21507223 -11.50714307 14.19464492 -12 19 C-12.80594499 20.95804995 -13.66201697 22.8960874 -14.5625 24.8125 C-15.01753906 25.78832031 -15.47257813 26.76414063 -15.94140625 27.76953125 C-16.29074219 28.50558594 -16.64007813 29.24164063 -17 30 C-17.66 30 -18.32 30 -19 30 C-19.66 31.98 -20.32 33.96 -21 36 C-22.91936628 31.0456358 -20.47314009 26.98678361 -18.59765625 22.33203125 C-16.34283561 17.62943465 -13.41332614 13.9056328 -10 10 C-9.319375 9.0925 -8.63875 8.185 -7.9375 7.25 C-5.52647132 4.45009572 -2.8905822 2.29932675 0 0 Z " fill="#0EBBD7" transform="translate(220,115)"/>
<path d="M0 0 C3.55312288 1.73021636 6.79730794 3.67076941 10 6 C10 6.66 10 7.32 10 8 C10.763125 8.144375 11.52625 8.28875 12.3125 8.4375 C15 9 15 9 18 10 C18 10.66 18 11.32 18 12 C18.825 12.268125 19.65 12.53625 20.5 12.8125 C23.05301578 13.67870178 25.55098031 14.59029883 28.0625 15.5625 C31.01858905 16.68592732 33.86369084 17.50995169 37 18 C37 18.33 37 18.66 37 19 C25.42808212 19.48522654 14.66032091 14.50243918 6 7 C3.81797269 4.75224898 1.92425199 2.4812723 0 0 Z " fill="#63FE02" transform="translate(129,346)"/>
<path d="M0 0 C4.25969191 1.8931964 7.68486525 4.54881682 10.8125 8 C13.41657126 10.38086515 16.07452308 11.58138011 19.29296875 12.97265625 C21 14 21 14 22 17 C14.52931605 17 10.37866101 12.80626972 5 8 C4.4225 7.49339844 3.845 6.98679688 3.25 6.46484375 C1.875 5.1875 1.875 5.1875 0 3 C0 2.01 0 1.02 0 0 Z " fill="#9EE9EC" transform="translate(237,232)"/>
<path d="M0 0 C0.66 0 1.32 0 2 0 C6 8 10 16 14 24 C13.01 24.33 12.02 24.66 11 25 C9.72710095 22.79283537 8.4566395 20.58432515 7.1875 18.375 C6.83107422 17.75753906 6.47464844 17.14007813 6.10742188 16.50390625 C-0.44797635 5.07706531 -0.44797635 5.07706531 0 0 Z " fill="#60EAF3" transform="translate(203,181)"/>
<path d="M0 0 C-0.54193014 5.330123 -1.84658553 9.57894042 -4.0625 14.4375 C-4.34416016 15.07365234 -4.62582031 15.70980469 -4.91601562 16.36523438 C-5.60289812 17.91363051 -6.30034407 19.45733357 -7 21 C-7.99 20.67 -8.98 20.34 -10 20 C-9.33333333 18 -8.66666667 16 -8 14 C-7.690625 13.030625 -7.38125 12.06125 -7.0625 11.0625 C-3.2244898 0 -3.2244898 0 0 0 Z " fill="#EBFA4E" transform="translate(236,299)"/>
<path d="M0 0 C2.57680511 2.57680511 2.32700906 3.6602779 2.375 7.25 C2.26207778 14.4162176 0.81704448 21.39549103 -2 28 C-2.99 28.33 -3.98 28.66 -5 29 C-4.56167169 24.35371993 -3.80752743 20.10886237 -2.5 15.625 C-1.01052773 10.43001135 -0.33867235 5.38372253 0 0 Z " fill="#F3F5DD" transform="translate(244,269)"/>
<path d="M0 0 C0.99 0 1.98 0 3 0 C3.33 2.31 3.66 4.62 4 7 C4.66 7 5.32 7 6 7 C6.66 12.94 7.32 18.88 8 25 C4.96205724 21.96205724 4.19928742 18.21422084 2.875 14.1875 C2.59785156 13.37990234 2.32070313 12.57230469 2.03515625 11.74023438 C0.70264925 7.73286727 -0.39961768 4.28285902 0 0 Z " fill="#FFAE7D" transform="translate(269,282)"/>
<path d="M0 0 C4.67100036 -0.72984381 7.03881779 1.13619561 10.734375 3.6328125 C13.9791682 5.59087736 17.42360154 6.77516633 20.99609375 8.0078125 C21.65738281 8.33523438 22.31867188 8.66265625 23 9 C23.33 9.99 23.66 10.98 24 12 C15.95731837 11.63442356 7.46101419 7.83601419 1.75 2.125 C1.1725 1.42375 0.595 0.7225 0 0 Z " fill="#E73099" transform="translate(304,355)"/>
<path d="M0 0 C5.01707535 -0.04961356 10.03400635 -0.08582043 15.05126953 -0.10986328 C16.75637298 -0.1198914 18.46145936 -0.13351726 20.16650391 -0.15087891 C22.62406642 -0.17526803 25.08140061 -0.18651512 27.5390625 -0.1953125 C28.67379501 -0.21079636 28.67379501 -0.21079636 29.83145142 -0.22659302 C34.27822943 -0.22752561 37.86910217 0.34878358 42 2 C42 2.33 42 2.66 42 3 C37.94713372 2.87995796 33.8944213 2.75563813 29.84179688 2.62768555 C28.46878444 2.58489909 27.0957377 2.54319674 25.72265625 2.50268555 C17.11899898 2.24797201 8.56897668 1.82316313 0 1 C0 0.67 0 0.34 0 0 Z " fill="#F493C3" transform="translate(312,253)"/>
<path d="M0 0 C3.12117882 0.37951441 6.04856461 0.89582825 9 2 C11.66936694 5.64004582 12.39472274 8.52647562 12 13 C6.88899452 10.52193674 3.32925974 6.51896639 0 2 C0 1.34 0 0.68 0 0 Z " fill="#FF253B" transform="translate(298,343)"/>
<path d="M0 0 C0.33 0 0.66 0 1 0 C1.04898438 0.90363281 1.09796875 1.80726563 1.1484375 2.73828125 C1.22320312 3.91777344 1.29796875 5.09726563 1.375 6.3125 C1.44460937 7.48425781 1.51421875 8.65601563 1.5859375 9.86328125 C1.78613747 13.15699887 1.78613747 13.15699887 4 16 C6.0376814 21.71807512 7.78424137 26.99846086 6 33 C4 32 4 32 2.9296875 29.47265625 C-0.17139498 19.4458229 -0.42502763 10.41317697 0 0 Z " fill="#24CBDF" transform="translate(197,151)"/>
<path d="M0 0 C0.33 0.66 0.66 1.32 1 2 C1.66 2 2.32 2 3 2 C2.4498845 6.89900151 0.96682361 10.48951337 -1.375 14.8125 C-1.98085937 15.95332031 -2.58671875 17.09414063 -3.2109375 18.26953125 C-5 21 -5 21 -8 22 C-6.17889883 16.28836452 -4.13922117 10.7120517 -1.8671875 5.1640625 C-1.18632921 3.46498371 -0.57882957 1.73648872 0 0 Z " fill="#E6EDBA" transform="translate(238,296)"/>
<path d="M0 0 C8.31920613 1.34786607 14.5083241 4.4626481 21.50390625 9.1015625 C21.17390625 9.7615625 20.84390625 10.4215625 20.50390625 11.1015625 C17.29146757 10.45177377 14.8521993 9.26385376 12.00390625 7.6640625 C6.35446384 4.74658926 0.77291961 3.82325304 -5.49609375 3.1015625 C-3.72166312 0.77150207 -2.98668707 0.12152404 0 0 Z " fill="#EE38A1" transform="translate(354.49609375,253.8984375)"/>
<path d="M0 0 C-0.309375 0.804375 -0.61875 1.60875 -0.9375 2.4375 C-2.18565517 6.62249087 -2.6337696 10.66306101 -3 15 C-3.66 15 -4.32 15 -5 15 C-5.33 15.66 -5.66 16.32 -6 17 C-7.01124844 12.07016388 -7.72596375 7.01307397 -7 2 C-4.42401965 -1.02011489 -3.81847681 -1.2728256 0 0 Z " fill="#FFBC85" transform="translate(274,267)"/>
<path d="M0 0 C0.66 0 1.32 0 2 0 C1.4931792 5.31148203 0.2164484 9.18534407 -2.3125 13.875 C-2.90675781 15.00679687 -3.50101562 16.13859375 -4.11328125 17.3046875 C-6 20 -6 20 -8.23046875 20.8828125 C-8.81441406 20.92148438 -9.39835937 20.96015625 -10 21 C-8.27502493 16.3970402 -6.0904129 12.06744176 -3.875 7.6875 C-3.50246094 6.94693359 -3.12992187 6.20636719 -2.74609375 5.44335938 C-1.83255194 3.62798783 -0.91652513 1.81386718 0 0 Z " fill="#42EBF8" transform="translate(305,184)"/>
<path d="M0 0 C4.51673676 4.03596366 5.78436495 9.2745778 6.12890625 15.22705078 C6.2556048 20.48820813 6.15469247 25.74045612 6 31 C5.67 31 5.34 31 5 31 C4.95101563 30.00097656 4.90203125 29.00195312 4.8515625 27.97265625 C4.77679688 26.68230469 4.70203125 25.39195312 4.625 24.0625 C4.52058594 22.13083984 4.52058594 22.13083984 4.4140625 20.16015625 C4.27742188 19.11730469 4.14078125 18.07445312 4 17 C3.34 16.67 2.68 16.34 2 16 C1.11328125 12.91015625 1.11328125 12.91015625 0.3125 9.0625 C0.04050781 7.79535156 -0.23148437 6.52820313 -0.51171875 5.22265625 C-1 2 -1 2 0 0 Z " fill="#15BCD3" transform="translate(308,138)"/>
<path d="M0 0 C0.99 0 1.98 0 3 0 C2.70245971 7.12608999 1.28874656 12.6672508 -2 19 C-4 16 -4 16 -3.3203125 12.20703125 C-2.93495648 10.73869192 -2.53597227 9.27387656 -2.125 7.8125 C-1.92519531 7.06291016 -1.72539062 6.31332031 -1.51953125 5.54101562 C-1.02458964 3.69087675 -0.51379524 1.844992 0 0 Z " fill="#2AD6E8" transform="translate(310,168)"/>
<path d="M0 0 C1.65 0 3.3 0 5 0 C5.66 1.32 6.32 2.64 7 4 C7.66 4 8.32 4 9 4 C9 4.66 9 5.32 9 6 C10.32 6.33 11.64 6.66 13 7 C13 8.65 13 10.3 13 12 C10.11919043 10.82633684 8.65742801 9.64907259 6.4375 7.375 C4.2090916 4.65106764 4.2090916 4.65106764 1 5 C0.67 3.35 0.34 1.7 0 0 Z " fill="#FF636A" transform="translate(284,321)"/>
<path d="M0 0 C4.9240432 4.7652031 9.44259642 9.88657333 14 15 C12.68 15.33 11.36 15.66 10 16 C8.36932995 14.25500253 6.74548753 12.50441212 5.125 10.75 C4.66480469 10.25886719 4.20460938 9.76773437 3.73046875 9.26171875 C1.33815688 6.66137976 -0.64145405 4.27924885 -2 1 C-1.34 0.67 -0.68 0.34 0 0 Z " fill="#F472B1" transform="translate(293,339)"/>
<path d="M0 0 C0.66 0.66 1.32 1.32 2 2 C4.65537372 2.56520003 7.29144713 2.73788198 10 3 C10.33 3.99 10.66 4.98 11 6 C10.319375 5.835 9.63875 5.67 8.9375 5.5 C5.5835178 4.92910941 2.39610195 4.93340977 -1 5 C-1 4.34 -1 3.68 -1 3 C-4.63 2.67 -8.26 2.34 -12 2 C-8.01073455 -0.6595103 -4.60754647 -1.74769004 0 0 Z " fill="#FF827B" transform="translate(317,257)"/>
<path d="M0 0 C1.01771484 0.00902344 2.03542969 0.01804687 3.08398438 0.02734375 C5.57707156 0.05075302 8.06965859 0.083543 10.5625 0.125 C7.54115097 2.76309214 5.75172672 3.4895249 1.75390625 3.3828125 C0.38588867 3.36154297 0.38588867 3.36154297 -1.00976562 3.33984375 C-1.95529297 3.31019531 -2.90082031 3.28054687 -3.875 3.25 C-5.74859778 3.20639814 -7.62230409 3.16719396 -9.49609375 3.1328125 C-10.73830688 3.09631592 -10.73830688 3.09631592 -12.00561523 3.05908203 C-14.58421272 3.12897675 -16.92668435 3.55149893 -19.4375 4.125 C-18.4375 2.125 -18.4375 2.125 -15.58984375 1.0078125 C-10.45585049 -0.33308735 -5.26754709 -0.0891062 0 0 Z " fill="#08B4D7" transform="translate(254.4375,103.875)"/>
<path d="M0 0 C1.04220703 0.21269531 1.04220703 0.21269531 2.10546875 0.4296875 C4.09386749 0.85497354 6.04976384 1.42452048 8 2 C8.33 2.99 8.66 3.98 9 5 C2.4 4.34 -4.2 3.68 -11 3 C-9 0 -9 0 -6.625 -0.75 C-3.98617368 -1.00131679 -2.51997062 -0.68513168 0 0 Z " fill="#FF9A7D" transform="translate(308,258)"/>
<path d="M0 0 C6.04583258 2.6870367 9.96244597 6.92421779 14 12 C13.67 12.66 13.34 13.32 13 14 C8.125 11.375 8.125 11.375 7 8 C6.34 8 5.68 8 5 8 C5 7.34 5 6.68 5 6 C4.34 6 3.68 6 3 6 C3 5.34 3 4.68 3 4 C1.68 3.34 0.36 2.68 -1 2 C-0.67 1.34 -0.34 0.68 0 0 Z " fill="#E62D95" transform="translate(375,264)"/>
<path d="M0 0 C0 3.2397172 -0.59140745 4.18281491 -2 7 C-2.58498208 9.07158792 -3.12436324 11.15642808 -3.625 13.25 C-3.88539063 14.32765625 -4.14578125 15.4053125 -4.4140625 16.515625 C-4.60742188 17.33546875 -4.80078125 18.1553125 -5 19 C-5.33 19 -5.66 19 -6 19 C-5.98839844 18.40832031 -5.97679687 17.81664062 -5.96484375 17.20703125 C-5.91677614 12.99768215 -5.93993117 9.1077667 -7 5 C-4.702779 3.25728062 -2.40133271 1.60088848 0 0 Z " fill="#80FC08" transform="translate(137,282)"/>
<path d="M0 0 C8.91 0 17.82 0 27 0 C27 0.33 27 0.66 27 1 C26.09507812 1.09087891 26.09507812 1.09087891 25.171875 1.18359375 C23.97304687 1.30927734 23.97304687 1.30927734 22.75 1.4375 C21.96109375 1.51871094 21.1721875 1.59992188 20.359375 1.68359375 C18.06543115 1.92444466 18.06543115 1.92444466 16.1875 2.5625 C12.861131 3.2277738 9.60372822 2.83827916 6.25 2.5625 C5.55261719 2.51029297 4.85523438 2.45808594 4.13671875 2.40429688 C2.42403797 2.27525928 0.71194934 2.13840386 -1 2 C-0.67 1.34 -0.34 0.68 0 0 Z " fill="#E5F09E" transform="translate(173,253)"/>
<path d="M0 0 C3.25484267 0.99453526 4.78855113 1.73398368 6.9375 4.4375 C9.32009388 7.39769239 11.54607459 8.50853221 15 10 C14.67 10.99 14.34 11.98 14 13 C10.84866512 11.16172132 7.88035092 9.24027294 5 7 C4.01 7.495 4.01 7.495 3 8 C0 2.25 0 2.25 0 0 Z " fill="#FF505B" transform="translate(286,325)"/>
<path d="M0 0 C0.33 0 0.66 0 1 0 C0.47553382 8.26034228 -1.44217361 15.60849965 -7 22 C-6.39879861 17.79159027 -5.3916173 14.01113222 -4 10 C-3.30894494 7.67297787 -2.65455027 5.33767954 -2 3 C-1.34 3 -0.68 3 0 3 C0 2.01 0 1.02 0 0 Z " fill="#E91783" transform="translate(397,318)"/>
<path d="M0 0 C0.66 0.33 1.32 0.66 2 1 C0.66666667 2.66666667 -0.66666667 4.33333333 -2 6 C-2.639375 6.86625 -3.27875 7.7325 -3.9375 8.625 C-6.11326597 11.13042748 -8.09616532 12.43639671 -11 14 C-11.99 14.66 -12.98 15.32 -14 16 C-11.03982764 9.46720582 -5.75054379 4.18221366 0 0 Z " fill="#BADB2F" transform="translate(136,262)"/>
<path d="M0 0 C-8.52 5.68 -8.52 5.68 -13 8 C-13.99 7.67 -14.98 7.34 -16 7 C-15 4 -15 4 -13.00390625 2.8671875 C-12.19824219 2.53976562 -11.39257812 2.21234375 -10.5625 1.875 C-9.75941406 1.54242188 -8.95632812 1.20984375 -8.12890625 0.8671875 C-7.07509766 0.43792969 -7.07509766 0.43792969 -6 0 C-3.50907189 -1.24546405 -2.58919267 -0.7767578 0 0 Z " fill="#C7DF48" transform="translate(154,256)"/>
<path d="M0 0 C1.84228293 0.20113532 3.67580379 0.48574321 5.5 0.8125 C6.5003125 0.98394531 7.500625 1.15539062 8.53125 1.33203125 C9.3459375 1.55246094 10.160625 1.77289063 11 2 C11.33 2.66 11.66 3.32 12 4 C6.88756818 4.94089801 2.68592064 4.8920062 -2.4375 4.0625 C-3.67371094 3.86785156 -4.90992188 3.67320312 -6.18359375 3.47265625 C-7.11300781 3.31667969 -8.04242188 3.16070312 -9 3 C-5.72933122 0.81955415 -4.74581273 0.90142598 -1 1 C-0.67 0.67 -0.34 0.34 0 0 Z " fill="#F0FA5B" transform="translate(213,259)"/>
<path d="M0 0 C14.78132118 -0.3690205 14.78132118 -0.3690205 21 2 C20.01 2.33 19.02 2.66 18 3 C17.01 3.495 17.01 3.495 16 4 C16 4.33 16 4.66 16 5 C14.35 5 12.7 5 11 5 C10.67 4.34 10.34 3.68 10 3 C7.65092125 2.31068656 7.65092125 2.31068656 4.9375 1.875 C4.01839844 1.70742188 3.09929687 1.53984375 2.15234375 1.3671875 C1.44207031 1.24601562 0.73179687 1.12484375 0 1 C0 0.67 0 0.34 0 0 Z " fill="#FF3343" transform="translate(335,256)"/>
<path d="M0 0 C0.66 1.32 1.32 2.64 2 4 C0.02 6.31 -1.96 8.62 -4 11 C-5.32 10.67 -6.64 10.34 -8 10 C-5.36 6.7 -2.72 3.4 0 0 Z M-14 15 C-13.34 15 -12.68 15 -12 15 C-12 15.66 -12 16.32 -12 17 C-12.99 16.67 -13.98 16.34 -15 16 C-14.67 15.67 -14.34 15.34 -14 15 Z " fill="#DEF461" transform="translate(216,340)"/>
<path d="M0 0 C4.07316923 1.39651516 7.21677277 2.66012732 10 6 C10.43007011 10.03190728 10.28578123 13.96095865 10 18 C9.67 18 9.34 18 9 18 C8.67 14.37 8.34 10.74 8 7 C7.05125 6.690625 6.1025 6.38125 5.125 6.0625 C2 5 2 5 0 4 C0 2.68 0 1.36 0 0 Z " fill="#E2E4DC" transform="translate(237,262)"/>
<path d="M0 0 C-1 2 -1 2 -3.046875 2.8515625 C-10.47743039 4.97764627 -17.29710915 5.33064873 -25 5 C-25 4.67 -25 4.34 -25 4 C-21.04 4 -17.08 4 -13 4 C-13 3.34 -13 2.68 -13 2 C-11.39935157 1.46845258 -9.79431126 0.95011647 -8.1875 0.4375 C-7.29417969 0.14746094 -6.40085938 -0.14257812 -5.48046875 -0.44140625 C-3 -1 -3 -1 0 0 Z " fill="#B6D627" transform="translate(189,364)"/>
<path d="M0 0 C2.29017186 2.14913488 4.01315589 4.34518412 5.6875 7 C6.34298828 8.0209375 6.34298828 8.0209375 7.01171875 9.0625 C8 11 8 11 8 14 C3.87333926 12.51081373 2.7026637 10.19156996 0.75 6.375 C0.22921875 5.37210937 -0.2915625 4.36921875 -0.828125 3.3359375 C-1.40820312 2.17964844 -1.40820312 2.17964844 -2 1 C-1.34 0.67 -0.68 0.34 0 0 Z " fill="#F591BB" transform="translate(285,326)"/>
<path d="M0 0 C7.04440079 -0.21133202 13.24112575 -0.07965362 20 2 C19.67 2.99 19.34 3.98 19 5 C12.73 3.68 6.46 2.36 0 1 C0 0.67 0 0.34 0 0 Z " fill="#FF4B55" transform="translate(323,256)"/>
<path d="M0 0 C1.48955964 4.03554455 0.73340437 7.97315585 0.1875 12.125 C0.10435547 12.85332031 0.02121094 13.58164063 -0.06445312 14.33203125 C-0.7505291 19.7505291 -0.7505291 19.7505291 -3 22 C-3.55353075 6.07061503 -3.55353075 6.07061503 0 0 Z " fill="#18E6F9" transform="translate(201,144)"/>
<path d="M0 0 C0.33 0 0.66 0 1 0 C0.44854729 5.23880078 -0.42922093 9.97350697 -2 15 C-3.32 13.35 -4.64 11.7 -6 10 C-5.02526874 8.33073546 -4.04510211 6.66464358 -3.0625 5 C-2.24458984 3.6078125 -2.24458984 3.6078125 -1.41015625 2.1875 C-0.71212891 1.1046875 -0.71212891 1.1046875 0 0 Z " fill="#F1FA5C" transform="translate(239,288)"/>
<path d="M0 0 C0.33 0.66 0.66 1.32 1 2 C0.00390625 4.6015625 0.00390625 4.6015625 -1.4375 7.625 C-1.91058594 8.62789062 -2.38367188 9.63078125 -2.87109375 10.6640625 C-3.24363281 11.43492187 -3.61617187 12.20578125 -4 13 C-4.66 13 -5.32 13 -6 13 C-6.66 14.98 -7.32 16.96 -8 19 C-9.19234985 16.12310936 -9.02291478 15.06011094 -7.890625 12.08984375 C-7.07851562 10.52943359 -7.07851562 10.52943359 -6.25 8.9375 C-5.45335937 7.37322266 -5.45335937 7.37322266 -4.640625 5.77734375 C-3.2491227 3.42172915 -2.04376106 1.77905707 0 0 Z " fill="#11CAE3" transform="translate(207,132)"/>
<path d="M0 0 C0.66 0.33 1.32 0.66 2 1 C2 1.66 2 2.32 2 3 C-4.05473373 5.57886807 -9.44074057 6.61020794 -16 7 C-14 4 -14 4 -12.01171875 3.33984375 C-11.24472656 3.20707031 -10.47773438 3.07429688 -9.6875 2.9375 C-6.9305647 2.41448012 -4.68266008 1.87171365 -2.0625 0.8125 C-1.381875 0.544375 -0.70125 0.27625 0 0 Z " fill="#F01F90" transform="translate(362,361)"/>
<path d="M0 0 C0.66 0.33 1.32 0.66 2 1 C1.51917969 1.39832031 1.03835938 1.79664063 0.54296875 2.20703125 C-1.37391825 4.43450247 -1.47741643 5.78834669 -1.6875 8.6875 C-1.75324219 9.49574219 -1.81898438 10.30398438 -1.88671875 11.13671875 C-1.92410156 11.75160156 -1.96148437 12.36648438 -2 13 C-1.01 13 -0.02 13 1 13 C1 15.97 1 18.94 1 22 C-1 21 -1 21 -2.125 18.6875 C-3.35157222 13.51837423 -3.70866715 8.28071327 -3 3 C-1.48046875 1.13671875 -1.48046875 1.13671875 0 0 Z " fill="#E5D2C6" transform="translate(267,265)"/>
<path d="M0 0 C1.13199353 0.9080162 2.25532363 1.82683826 3.375 2.75 C4.00148437 3.26046875 4.62796875 3.7709375 5.2734375 4.296875 C7.08312318 6.08199481 8.00117455 7.67949644 9 10 C8.34 10.66 7.68 11.32 7 12 C4.36 9.03 1.72 6.06 -1 3 C-0.67 2.01 -0.34 1.02 0 0 Z " fill="#91EEF2" transform="translate(229,222)"/>
<path d="M0 0 C0.99 0 1.98 0 3 0 C3.06058594 0.73605469 3.12117187 1.47210938 3.18359375 2.23046875 C3.26738281 3.20628906 3.35117188 4.18210937 3.4375 5.1875 C3.51871094 6.15042969 3.59992188 7.11335938 3.68359375 8.10546875 C3.97666151 10.78649602 4.42703754 13.3662986 5 16 C4.34 16 3.68 16 3 16 C0.89424625 10.47239641 -0.37851209 5.93002267 0 0 Z " fill="#5EFD02" transform="translate(126,300)"/>
<path d="M0 0 C1.16144531 0.00902344 2.32289063 0.01804688 3.51953125 0.02734375 C4.39996094 0.03894531 5.28039062 0.05054688 6.1875 0.0625 C3.16656785 3.08343215 -0.37622072 2.52926834 -4.4375 2.6875 C-5.23929687 2.72617187 -6.04109375 2.76484375 -6.8671875 2.8046875 C-8.84857556 2.89903931 -10.83050645 2.98186215 -12.8125 3.0625 C-12.4825 2.4025 -12.1525 1.7425 -11.8125 1.0625 C-7.88476248 -0.07920067 -4.06671021 -0.04107788 0 0 Z " fill="#FEBFCF" transform="translate(317.8125,253.9375)"/>
<path d="M0 0 C0 0.33 0 0.66 0 1 C-2.31 1.33 -4.62 1.66 -7 2 C-6.01 2.66 -5.02 3.32 -4 4 C-10.435 4.495 -10.435 4.495 -17 5 C-16.67 4.34 -16.34 3.68 -16 3 C-15.01 3 -14.02 3 -13 3 C-13 2.34 -13 1.68 -13 1 C-8.59085217 -0.10228696 -4.51617599 -0.07654536 0 0 Z " fill="#D0E75E" transform="translate(167,253)"/>
<path d="M0 0 C0.99 0 1.98 0 3 0 C2.49890042 4.38462134 1.01704885 6.8000997 -2 10 C-2.66 10 -3.32 10 -4 10 C-3.43768609 6.06380262 -2.38314183 3.20807554 0 0 Z " fill="#B9E121" transform="translate(121,278)"/>
<path d="M0 0 C1.46156416 2.32130778 2.06296407 3.53215303 1.69140625 6.29296875 C1.46324219 7.18628906 1.23507813 8.07960938 1 9 C0.63292007 11.43558876 0.27945007 13.87325618 -0.0625 16.3125 C-0.23910156 17.56675781 -0.41570312 18.82101562 -0.59765625 20.11328125 C-0.73042969 21.06589844 -0.86320312 22.01851563 -1 23 C-1.33 23 -1.66 23 -2 23 C-2.20483028 15.00023956 -2.13480153 7.73865554 0 0 Z " fill="#79FE05" transform="translate(117,294)"/>
<path d="M0 0 C1.21386936 3.64160808 0.6674695 4.33165469 -0.9375 7.6875 C-1.31777344 8.49574219 -1.69804687 9.30398438 -2.08984375 10.13671875 C-2.39019531 10.75160156 -2.69054687 11.36648438 -3 12 C-3.99 11.67 -4.98 11.34 -6 11 C-4.74194623 6.49197399 -3.09592835 3.5087188 0 0 Z " fill="#E5F942" transform="translate(232,308)"/>
<path d="M0 0 C3 1 3 1 4.6875 3.8125 C7.57693074 7.79522885 10.54334802 9.1610902 15 11 C11.57581122 12.14139626 11.15223235 11.94974904 8.0625 10.4375 C3.95527369 8.26664558 2.13566902 6.09336563 0 2 C0 1.34 0 0.68 0 0 Z " fill="#63FD02" transform="translate(140,336)"/>
<path d="M0 0 C0.99 0 1.98 0 3 0 C4.38671875 1.75 4.38671875 1.75 5.6875 4 C6.12449219 4.7425 6.56148437 5.485 7.01171875 6.25 C7.33785156 6.8275 7.66398438 7.405 8 8 C7.01 8.66 6.02 9.32 5 10 C4.16121545 8.71186658 3.32913217 7.41936744 2.5 6.125 C2.0359375 5.40570313 1.571875 4.68640625 1.09375 3.9453125 C0 2 0 2 0 0 Z " fill="#74EDF4" transform="translate(215,205)"/>
<path d="M0 0 C0.66 0 1.32 0 2 0 C2.67119549 1.4562545 3.33681807 2.91507867 4 4.375 C4.556875 5.59316406 4.556875 5.59316406 5.125 6.8359375 C6 9 6 9 6 11 C5.01 11 4.02 11 3 11 C0.84694043 7.14243493 -0.39253254 4.44870215 0 0 Z " fill="#3EEAF8" transform="translate(203,181)"/>
<path d="M0 0 C1.18771723 3.42943519 0.80226223 5.37784675 -0.4375 8.75 C-0.72496094 9.54921875 -1.01242187 10.3484375 -1.30859375 11.171875 C-1.53675781 11.77515625 -1.76492188 12.3784375 -2 13 C-2.99 13 -3.98 13 -5 13 C-4.54554036 11.58208592 -4.08625056 10.16571954 -3.625 8.75 C-3.24214844 7.56664062 -3.24214844 7.56664062 -2.8515625 6.359375 C-2.04826333 4.13372042 -1.10288338 2.09068328 0 0 Z " fill="#FC0F68" transform="translate(391,330)"/>
<path d="M0 0 C3.40312738 1.05875074 6.01353231 2.00902154 9 4 C9 4.66 9 5.32 9 6 C6.1875 6.25 6.1875 6.25 3 6 C1.125 4.125 1.125 4.125 0 2 C0 1.34 0 0.68 0 0 Z " fill="#FF3445" transform="translate(294,338)"/>
<path d="M0 0 C0.66 0.33 1.32 0.66 2 1 C1.58578031 5.83256305 -0.46413986 7.82679218 -4 11 C-4.56638908 6.18569279 -2.82561627 3.79692186 0 0 Z " fill="#E5F682" transform="translate(221,332)"/>
<path d="M0 0 C1.61841797 0.33064453 1.61841797 0.33064453 3.26953125 0.66796875 C4.89955078 0.98701172 4.89955078 0.98701172 6.5625 1.3125 C7.80966797 1.58126953 7.80966797 1.58126953 9.08203125 1.85546875 C8.42203125 2.51546875 7.76203125 3.17546875 7.08203125 3.85546875 C4.04296875 3.83203125 4.04296875 3.83203125 0.45703125 3.48046875 C-0.73148437 3.36960937 -1.92 3.25875 -3.14453125 3.14453125 C-4.05976563 3.04914063 -4.975 2.95375 -5.91796875 2.85546875 C-4.01017997 0.19795245 -3.34791571 -0.16582715 0 0 Z " fill="#EA59A4" transform="translate(354.91796875,254.14453125)"/>
<path d="M0 0 C1.74991334 -0.02715383 3.49994945 -0.04646551 5.25 -0.0625 C6.71179688 -0.07990234 6.71179688 -0.07990234 8.203125 -0.09765625 C10.65758678 -0.01195577 12.66168914 0.29293934 15 1 C15 1.66 15 2.32 15 3 C12.87436897 2.88623383 10.7494739 2.75864369 8.625 2.625 C7.44164062 2.55539062 6.25828125 2.48578125 5.0390625 2.4140625 C2 2 2 2 0 0 Z " fill="#F4FCBA" transform="translate(189,254)"/>
<path d="M0 0 C5 6.36363636 5 6.36363636 5 11 C2 10 2 10 0.25 7.1875 C-0.98589446 4.03596914 -1.28222189 3.03070628 0 0 Z " fill="#F9ADC6" transform="translate(280,316)"/>
<path d="M0 0 C4.81430721 -0.56638908 7.20307814 1.17438373 11 4 C9.02 4.99 9.02 4.99 7 6 C5.83054208 5.19152271 4.66449539 4.37810888 3.5 3.5625 C2.8503125 3.11003906 2.200625 2.65757812 1.53125 2.19140625 C1.0259375 1.79824219 0.520625 1.40507812 0 1 C0 0.67 0 0.34 0 0 Z " fill="#EA409F" transform="translate(304,355)"/>
<path d="M0 0 C0.66 0.33 1.32 0.66 2 1 C1.67 3.64 1.34 6.28 1 9 C0.01 9.33 -0.98 9.66 -2 10 C-1.125 2.25 -1.125 2.25 0 0 Z " fill="#F2F7D1" transform="translate(241,288)"/>
<path d="M0 0 C-1.49041773 3.79379058 -3.69062512 5.68343758 -7 8 C-7.66 8 -8.32 8 -9 8 C-9 7.01 -9 6.02 -9 5 C-7.5390625 3.61328125 -7.5390625 3.61328125 -5.625 2.3125 C-4.68527344 1.65701172 -4.68527344 1.65701172 -3.7265625 0.98828125 C-2 0 -2 0 0 0 Z " fill="#EE1888" transform="translate(379,352)"/>
<path d="M0 0 C1 3 1 3 0.22265625 4.82421875 C-0.8515625 6.54947917 -1.92578125 8.27473958 -3 10 C-4.125 8.25 -4.125 8.25 -5 6 C-3.92886167 2.68920881 -2.98673647 1.99115765 0 0 Z " fill="#E3F093" transform="translate(227,325)"/>
<path d="M0 0 C1.3609623 2.7219246 0.70366248 4.1831957 0.0625 7.125 C-0.13214844 8.03507812 -0.32679688 8.94515625 -0.52734375 9.8828125 C-0.68332031 10.58148438 -0.83929688 11.28015625 -1 12 C-3 10 -3 10 -3.1953125 7.8359375 C-3.17210937 7.02382813 -3.14890625 6.21171875 -3.125 5.375 C-3.10695313 4.55773437 -3.08890625 3.74046875 -3.0703125 2.8984375 C-3.04710937 2.27195312 -3.02390625 1.64546875 -3 1 C-2.01 0.67 -1.02 0.34 0 0 Z " fill="#FFB877" transform="translate(270,268)"/>
<path d="M0 0 C2.31 1.98 4.62 3.96 7 6 C5.68 6.33 4.36 6.66 3 7 C1.35 5.02 -0.3 3.04 -2 1 C-1.34 0.67 -0.68 0.34 0 0 Z " fill="#F058AA" transform="translate(300,348)"/>
<path d="M0 0 C0.33 0.66 0.66 1.32 1 2 C0.22265625 4.1640625 0.22265625 4.1640625 -0.9375 6.625 C-1.31777344 7.44226563 -1.69804688 8.25953125 -2.08984375 9.1015625 C-2.54037109 10.04128906 -2.54037109 10.04128906 -3 11 C-3.66 10.01 -4.32 9.02 -5 8 C-5.99 8.495 -5.99 8.495 -7 9 C-6.75 7.125 -6.75 7.125 -6 5 C-4.0625 3.9375 -4.0625 3.9375 -2 3 C-1.34 2.01 -0.68 1.02 0 0 Z " fill="#9CF211" transform="translate(122,283)"/>
<path d="M0 0 C4.95 0.99 4.95 0.99 10 2 C9.67 2.66 9.34 3.32 9 4 C3.375 4.25 3.375 4.25 0 2 C0 1.34 0 0.68 0 0 Z " fill="#C6F914" transform="translate(149,362)"/>
<path d="M0 0 C0.33 0 0.66 0 1 0 C1.33 4.29 1.66 8.58 2 13 C-0.26568725 10.73431275 -0.55280451 9.56766015 -1.25 6.5 C-1.44078125 5.7059375 -1.6315625 4.911875 -1.828125 4.09375 C-1.88484375 3.4028125 -1.9415625 2.711875 -2 2 C-1.34 1.34 -0.68 0.68 0 0 Z " fill="#FF9E76" transform="translate(275,294)"/>
<path d="M0 0 C2 2 2 2 2.1953125 4.3828125 C2.17210937 5.28773438 2.14890625 6.19265625 2.125 7.125 C2.10695312 8.03507812 2.08890625 8.94515625 2.0703125 9.8828125 C2.03550781 10.93082031 2.03550781 10.93082031 2 12 C1.01 12 0.02 12 -1 12 C-0.67 8.04 -0.34 4.08 0 0 Z " fill="#FBFCEC" transform="translate(244,269)"/>
<path d="M0 0 C0 0.66 0 1.32 0 2 C-3.96 2 -7.92 2 -12 2 C-7.89783794 -0.73477471 -4.73617773 -1.57872591 0 0 Z " fill="#FF886F" transform="translate(317,257)"/>
<path d="M0 0 C2.31 0.33 4.62 0.66 7 1 C7.33 2.32 7.66 3.64 8 5 C2.25 3.125 2.25 3.125 0 2 C0 1.34 0 0.68 0 0 Z " fill="#DB3493" transform="translate(312,360)"/>
<path d="M0 0 C7.42857143 -0.28571429 7.42857143 -0.28571429 11 2 C10.67 2.66 10.34 3.32 10 4 C7.03 3.505 7.03 3.505 4 3 C4 2.34 4 1.68 4 1 C2.68 0.67 1.36 0.34 0 0 Z " fill="#DEE6B7" transform="translate(200,254)"/>
<path d="M0 0 C0.6875 1.8125 0.6875 1.8125 1 4 C-0.84159673 6.48615558 -2.00470711 7.00156904 -5 8 C-3.8141763 4.62496331 -2.72426311 2.35277269 0 0 Z " fill="#59EAF4" transform="translate(300,197)"/>
<path d="M0 0 C2.31 0.33 4.62 0.66 7 1 C7 1.66 7 2.32 7 3 C7.99 3.33 8.98 3.66 10 4 C6.98968256 4.93423645 6.13349732 5.04449911 3 4 C3 3.01 3 2.02 3 1 C2.01 0.67 1.02 0.34 0 0 Z " fill="#09B5D6" transform="translate(268,105)"/>
<path d="M0 0 C0.99 0.33 1.98 0.66 3 1 C3.3721042 2.32303717 3.70630173 3.65737935 4 5 C4.66 5.33 5.32 5.66 6 6 C5.67 6.99 5.34 7.98 5 9 C4.01 8.67 3.02 8.34 2 8 C0.5522078 5.10441559 0 3.25811062 0 0 Z " fill="#FF886D" transform="translate(277,306)"/>
<path d="M0 0 C0.99 0.33 1.98 0.66 3 1 C3.33 3.31 3.66 5.62 4 8 C3.34 8 2.68 8 2 8 C0.23537317 4.91190305 0 3.76687864 0 0 Z " fill="#F7C8CF" transform="translate(272,301)"/>
<path d="M0 0 C0.66 0.33 1.32 0.66 2 1 C-0.475 4.465 -0.475 4.465 -3 8 C-3.33 7.34 -3.66 6.68 -4 6 C-4.66 5.67 -5.32 5.34 -6 5 C-4.02 3.35 -2.04 1.7 0 0 Z " fill="#85EBF1" transform="translate(287,218)"/>
<path d="M0 0 C-3.44450737 2.29633824 -5.93812283 2.54016485 -10 3 C-10 2.34 -10 1.68 -10 1 C-3.71428571 -1.42857143 -3.71428571 -1.42857143 0 0 Z " fill="#FEDDD8" transform="translate(293,259)"/>
<path d="M0 0 C0.99 0 1.98 0 3 0 C4.125 2.3125 4.125 2.3125 5 5 C4.01 6.485 4.01 6.485 3 8 C0 2.25 0 2.25 0 0 Z " fill="#4EE6F2" transform="translate(207,192)"/>
<path d="M0 0 C0.99 0 1.98 0 3 0 C2.75 2.375 2.75 2.375 2 5 C-0.0625 6.3125 -0.0625 6.3125 -2 7 C-1.34 4.69 -0.68 2.38 0 0 Z " fill="#EFF8B0" transform="translate(232,311)"/>
<path d="M0 0 C2.97 0.495 2.97 0.495 6 1 C6 1.99 6 2.98 6 4 C3.03 3.505 3.03 3.505 0 3 C0 2.01 0 1.02 0 0 Z " fill="#F5F7E0" transform="translate(231,261)"/>
<path d="M0 0 C6.625 0.75 6.625 0.75 10 3 C2.25 3.125 2.25 3.125 0 2 C0 1.34 0 0.68 0 0 Z " fill="#FF6771" transform="translate(327,259)"/>
<path d="M0 0 C4.75 0.875 4.75 0.875 7 2 C6.67 2.99 6.34 3.98 6 5 C3.69 4.01 1.38 3.02 -1 2 C-0.67 1.34 -0.34 0.68 0 0 Z " fill="#F846AC" transform="translate(362,257)"/>
<path d="M0 0 C0.66 0.33 1.32 0.66 2 1 C2 1.66 2 2.32 2 3 C-0.64738916 4.4606285 -1.89448334 5 -5 5 C-5 4.01 -5 3.02 -5 2 C-2.625 0.9375 -2.625 0.9375 0 0 Z " fill="#EA1B89" transform="translate(362,361)"/>
<path d="M0 0 C0.99 0.33 1.98 0.66 3 1 C-0.465 3.97 -0.465 3.97 -4 7 C-3.04065919 3.16263678 -2.76390737 2.40339772 0 0 Z " fill="#CFE44F" transform="translate(208,351)"/>
<path d="M0 0 C1.65 0.33 3.3 0.66 5 1 C3.515 2.485 3.515 2.485 2 4 C1.01 3.67 0.02 3.34 -1 3 C-0.67 2.01 -0.34 1.02 0 0 Z " fill="#D0ED38" transform="translate(139,260)"/>
<path d="M0 0 C0 0.33 0 0.66 0 1 C-4.79137588 2.6290678 -8.05632546 3.20577428 -13 2 C-13 1.67 -13 1.34 -13 1 C-8.59085217 -0.10228696 -4.51617599 -0.07654536 0 0 Z " fill="#C19FAC" transform="translate(311,254)"/>
<path d="M0 0 C2.31 0.33 4.62 0.66 7 1 C7 1.33 7 1.66 7 2 C2.545 2.495 2.545 2.495 -2 3 C-1.34 2.01 -0.68 1.02 0 0 Z " fill="#00A0FE" transform="translate(252,121)"/>
</svg>
