<?xml version="1.0" encoding="UTF-8"?>
<svg version="1.1" xmlns="http://www.w3.org/2000/svg" width="512" height="512">
<path d="M0 0 C2.02103232 -0.00300026 4.04206407 -0.00640475 6.06309509 -0.01017761 C11.50367923 -0.01893468 16.9442476 -0.02135222 22.3848381 -0.0219934 C25.79880686 -0.02270876 29.21277172 -0.0248522 32.6267395 -0.02749062 C44.57944997 -0.03671737 56.53214937 -0.04082896 68.48486328 -0.04003906 C79.55749073 -0.03943934 90.6300693 -0.0499773 101.7026844 -0.06578273 C111.26597379 -0.07893831 120.82924736 -0.08421961 130.3925457 -0.08358365 C136.07893474 -0.08333097 141.76528028 -0.08605338 147.45166016 -0.0967617 C224.89378451 -0.2322536 224.89378451 -0.2322536 252.25 18.15698242 C255.07733158 20.11107281 255.07733158 20.11107281 257.5 21.19604492 C260.28583552 22.68060201 261.80565312 25.03525898 263.71875 27.48901367 C265.18875697 29.24230234 265.18875697 29.24230234 267.234375 30.09838867 C277.94600183 35.5768543 284.75120948 52.75009283 288.59375 63.70776367 C294.19983295 81.36784428 294.72517715 99.48149331 294.66943359 117.86010742 C294.67351085 120.15422819 294.67885914 122.44834699 294.68536377 124.74246216 C294.69890597 130.90777129 294.69379345 137.07292788 294.68422651 143.23823929 C294.67656134 149.73060732 294.68369437 156.22296342 294.68838501 162.71533203 C294.69416977 174.30760443 294.68492367 185.89980805 294.669607 197.4920696 C294.6562078 207.95625414 294.65853712 218.42033875 294.67236328 228.88452148 C294.6884967 241.10026946 294.69435219 253.31594649 294.68552649 265.5317049 C294.68088099 271.97468268 294.68013816 278.41759198 294.69013596 284.86056519 C294.69888635 290.92158638 294.69263828 296.98242134 294.67545319 303.0434227 C294.67153103 305.25027026 294.67254769 307.45713386 294.67924118 309.66397476 C294.76298145 340.11105345 290.84646813 370.80765885 268.8581543 393.6940918 C245.20076506 417.39993638 216.55805422 423.49664657 183.91372681 423.55184937 C181.79266271 423.54602007 179.67159947 423.5398758 177.55053711 423.53344727 C175.25479383 423.53752449 172.95905251 423.54287275 170.66331482 423.54937744 C164.49394076 423.56291928 158.32471915 423.55780749 152.15534282 423.54824018 C145.6598376 423.54057574 139.1643443 423.54770776 132.6688385 423.55239868 C121.07210498 423.55818325 109.47544022 423.5489374 97.87871755 423.53362067 C87.40796207 423.52021829 76.93730643 423.52255347 66.46655273 423.53637695 C54.24458842 423.55250532 42.02269501 423.55836875 29.80072027 423.54954016 C23.35386199 423.5448928 16.90707216 423.54415719 10.46021843 423.55414963 C4.396738 423.56289369 -1.66655614 423.55666316 -7.73001671 423.53946686 C-9.93889687 423.53554158 -12.14779304 423.53656694 -14.35666656 423.54325485 C-47.28948055 423.63368088 -76.60789266 417.86477633 -101.46875 394.83276367 C-125.13729931 369.64475194 -128.04530029 337.14933854 -127.97753906 304.25830078 C-127.98025587 302.01724637 -127.98382064 299.77619285 -127.98815918 297.53514099 C-127.99720296 291.50217736 -127.99377243 285.46928285 -127.98740101 279.43631816 C-127.98229983 273.09154129 -127.98704376 266.74676992 -127.99017334 260.4019928 C-127.99403243 249.07284145 -127.9878593 237.74372486 -127.97765467 226.41458047 C-127.96871928 216.17822705 -127.97027603 205.94191901 -127.97949219 195.70556641 C-127.99023604 183.76713119 -127.99415778 171.82872345 -127.98826766 159.89028174 C-127.98516562 153.58936415 -127.98468975 147.28847771 -127.99134064 140.98756218 C-127.99715964 135.0620586 -127.99303464 129.13663991 -127.98155212 123.2111454 C-127.97892986 121.04938268 -127.97962844 118.8876127 -127.98407745 116.72585297 C-128.02587348 94.33637258 -126.48870152 72.66216187 -116.71875 52.14526367 C-116.30109375 51.24549805 -115.8834375 50.34573242 -115.453125 49.41870117 C-111.40051918 41.33678037 -105.75765734 34.79535952 -99.71875 28.14526367 C-99.03039062 27.38084961 -98.34203125 26.61643555 -97.6328125 25.82885742 C-95.54409871 23.99164183 -94.36418025 23.76560681 -91.71875 23.14526367 C-90.25914391 22.01095739 -88.84730357 20.81430366 -87.46875 19.58276367 C-62.93757191 -0.51115721 -30.08804004 -0.00903832 0 0 Z " fill="#00004A" transform="translate(172.71875,48.854736328125)"/>
<path d="M0 0 C98.91967247 0 98.91967247 0 121.1875 20.5 C128.98517452 28.670769 134.43137783 38.74017934 135.74609375 50.0234375 C135.79517699 51.99892707 135.79517699 51.99892707 137 53 C138.21062815 72.86620955 135.31999273 91.8680015 122.4375 107.8125 C108.6342773 122.06611576 90.00681157 127.24222671 71 130 C70.05769531 130.17418457 69.11539063 130.34836914 68.14453125 130.52783203 C65.02101438 130.99684458 62.10120459 131.11392374 58.9453125 131.09765625 C57.83671875 131.09443359 56.728125 131.09121094 55.5859375 131.08789062 C54.44382813 131.07951172 53.30171875 131.07113281 52.125 131.0625 C50.9596875 131.05798828 49.794375 131.05347656 48.59375 131.04882812 C45.72911355 131.03708781 42.86458367 131.0206657 40 131 C40.00222061 131.72440781 40.00444122 132.44881561 40.00672913 133.19517517 C40.02673227 140.00843453 40.04197425 146.82168953 40.05181217 153.63497066 C40.05703989 157.13808885 40.0641355 160.64118285 40.07543945 164.14428711 C40.08834206 168.16780841 40.09322912 172.19130414 40.09765625 176.21484375 C40.10281754 177.47836166 40.10797882 178.74187958 40.11329651 180.04368591 C40.11337204 181.204814 40.11344757 182.36594208 40.11352539 183.56225586 C40.115746 184.59039902 40.11796661 185.61854218 40.12025452 186.67784119 C40 189 40 189 39 190 C26.13 190 13.26 190 0 190 C0 127.3 0 64.6 0 0 Z " fill="#8989FD" transform="translate(140,148)"/>
<path d="M0 0 C-0.33 0.99 -0.66 1.98 -1 3 C-1.66 3 -2.32 3 -3 3 C-3.268125 3.61875 -3.53625 4.2375 -3.8125 4.875 C-5 7 -5 7 -8 9 C-8.97506703 10.61390404 -9.9397376 12.23553526 -10.8359375 13.89453125 C-12.11980098 16.21668701 -13.52638625 18.44057273 -14.9375 20.6875 C-19.80170561 28.84760311 -23.00357261 37.23542947 -25.25 46.4375 C-25.41322754 47.09242432 -25.57645508 47.74734863 -25.74462891 48.42211914 C-28.85746082 62.07846747 -28.15439246 76.4199245 -28.16113281 90.33178711 C-28.16576926 92.57384318 -28.17079501 94.81589848 -28.17617798 97.05795288 C-28.18922496 103.11838402 -28.19573188 109.17880412 -28.20018864 115.23924708 C-28.20313205 119.03643295 -28.20723918 122.83361588 -28.21169281 126.63080025 C-28.22378761 137.18180559 -28.23417416 147.73280836 -28.2375679 158.28382015 C-28.23778747 158.95684741 -28.23800703 159.62987467 -28.23823325 160.3232967 C-28.23845153 160.99776428 -28.23866981 161.67223186 -28.2388947 162.36713785 C-28.23933814 163.73344672 -28.2397847 165.09975559 -28.24023438 166.46606445 C-28.2404558 167.14377412 -28.24067723 167.82148378 -28.24090537 168.5197301 C-28.24484661 179.48100067 -28.26228605 190.44220451 -28.2855939 201.40344935 C-28.30943066 212.70635617 -28.32151843 224.00921843 -28.32293582 235.31215483 C-28.32397759 241.63848553 -28.3297503 247.96472188 -28.34775543 254.29102898 C-28.36438969 260.2509727 -28.36631812 266.21075267 -28.35761642 272.17071152 C-28.35685418 274.34005107 -28.36107934 276.5094 -28.37107468 278.67871666 C-28.41796127 289.50219528 -28.09859824 300.12131324 -26.68475342 310.86305237 C-26.57104503 311.74085576 -26.45733664 312.61865915 -26.34018254 313.52306265 C-25.01334703 322.57467438 -21.84769717 330.74603432 -18 339 C-17.53722656 340.02351563 -17.07445313 341.04703125 -16.59765625 342.1015625 C-7.50303915 360.39624153 10.02154416 375.16051954 29.13671875 382.1640625 C41.87229217 385.88222445 54.5831535 388.15684783 67.85853577 388.13371277 C68.82258959 388.13597833 69.78664341 388.13824388 70.77991098 388.14057809 C73.9952948 388.14688454 77.21063609 388.14609088 80.42602539 388.14526367 C82.73781386 388.14825732 85.04960184 388.15166033 87.36138916 388.15544128 C93.63238642 388.16426616 99.90337004 388.16661881 106.17437291 388.16725707 C110.09694195 388.16796862 114.01950754 388.17010497 117.94207573 388.17275429 C130.93382211 388.1815268 143.92555883 388.18617462 156.91730804 388.18542381 C157.61676191 388.18538386 158.31621579 388.1853439 159.03686523 388.18530273 C160.08734078 388.18524141 160.08734078 388.18524141 161.15903806 388.18517885 C172.49393096 388.1847729 183.82879055 388.19433079 195.16367383 388.2084411 C206.8268604 388.22284443 218.49002925 388.22952642 230.15322489 388.22884732 C236.69121094 388.22859306 243.22915931 388.23140449 249.76713753 388.24202538 C255.92231181 388.25175139 262.07741276 388.25175477 268.23258972 388.24450874 C270.48226466 388.24346837 272.73194428 388.24579299 274.98161125 388.2518692 C304.6316964 388.32671669 331.16279932 384.44676472 354 364 C354.59683594 363.49597656 355.19367188 362.99195313 355.80859375 362.47265625 C372.46012144 347.35937592 380.29955257 323.78326514 382 302 C382.12856276 298.62225039 382.13962038 295.24964863 382.13371277 291.86972046 C382.13597833 290.9005798 382.13824388 289.93143914 382.14057809 288.93293059 C382.14686632 285.71227335 382.14609207 282.49165876 382.14526367 279.27099609 C382.14825843 276.95068305 382.15166169 274.6303705 382.15544128 272.31005859 C382.16425409 266.02465028 382.16661828 259.73925559 382.16725707 253.45384169 C382.16796922 249.52086846 382.17010667 245.58789867 382.17275429 241.6549263 C382.18152279 228.62472477 382.18617512 215.59453177 382.18542381 202.56432728 C382.18538386 201.86327994 382.1853439 201.1622326 382.18530273 200.43994141 C382.18526185 199.73802707 382.18522097 199.03611274 382.18517885 198.31292827 C382.18477282 186.94973877 382.19433392 175.58658246 382.2084411 164.22340254 C382.2228484 152.52511797 382.22970887 140.82684955 382.22884732 129.12855589 C382.22859319 122.57324143 382.23139732 116.01796456 382.24202538 109.46265793 C382.25175729 103.29185935 382.2517508 97.1211339 382.24450874 90.95033264 C382.24346915 88.69623838 382.24578825 86.44213943 382.2518692 84.18805313 C382.31465403 59.28539164 380.11903985 35.91138517 365.78515625 14.7265625 C364 12 364 12 364 10 C363.01 9.67 362.02 9.34 361 9 C360.3125 6.9375 360.3125 6.9375 360 5 C364.67767031 8.58144772 367.8794413 12.18750943 371.0625 17.125 C371.4958667 17.79168701 371.9292334 18.45837402 372.37573242 19.14526367 C377.56633743 27.27678785 380.99528469 35.4464931 383.6875 44.6875 C383.89028564 45.36917236 384.09307129 46.05084473 384.30200195 46.75317383 C388.46332911 61.93723982 388.29440355 77.54251318 388.2746582 93.1472168 C388.2790143 95.44059921 388.28420042 97.73398017 388.29014587 100.02735901 C388.30345192 106.21359128 388.30412385 112.39976215 388.30158257 118.58600593 C388.30050693 123.7717143 388.30541142 128.95741054 388.310188 134.1431163 C388.32188555 147.0881489 388.32107482 160.03314263 388.31463119 172.97817687 C388.30946778 184.16949796 388.32070889 195.36073186 388.33972941 206.55203571 C388.3591955 218.0957316 388.36705836 229.63937611 388.36360615 241.18308955 C388.36180354 247.64291578 388.36432639 254.10266218 388.37832069 260.5624752 C388.39100416 266.64393925 388.38885662 272.72523037 388.37590981 278.80669212 C388.37356703 281.02160199 388.3761947 283.23652442 388.38453293 285.45141983 C388.49085126 315.9219415 384.58358688 346.64327616 362.5769043 369.54882812 C338.91951506 393.25467271 310.27680422 399.3513829 277.63247681 399.40658569 C275.51141271 399.4007564 273.39034947 399.39461212 271.26928711 399.38818359 C268.97354383 399.39226082 266.67780251 399.39760908 264.38206482 399.40411377 C258.21269076 399.41765561 252.04346915 399.41254382 245.87409282 399.40297651 C239.3785876 399.39531207 232.8830943 399.40244409 226.3875885 399.40713501 C214.79085498 399.41291957 203.19419022 399.40367373 191.59746755 399.388357 C181.12671207 399.37495461 170.65605643 399.3772898 160.18530273 399.39111328 C147.96333842 399.40724165 135.74144501 399.41310508 123.51947027 399.40427649 C117.07261199 399.39962913 110.62582216 399.39889351 104.17896843 399.40888596 C98.115488 399.41763002 92.05219386 399.41139949 85.98873329 399.39420319 C83.77985313 399.3902779 81.57095696 399.39130327 79.36208344 399.39799118 C46.42926945 399.48841721 17.11085734 393.71951266 -7.75 370.6875 C-31.41854931 345.49948827 -34.32655029 313.00407486 -34.25878906 280.11303711 C-34.26150587 277.8719827 -34.26507064 275.63092918 -34.26940918 273.38987732 C-34.27845296 267.35691369 -34.27502243 261.32401918 -34.26865101 255.29105449 C-34.26354983 248.94627762 -34.26829376 242.60150625 -34.27142334 236.25672913 C-34.27528243 224.92757778 -34.2691093 213.59846119 -34.25890467 202.2693168 C-34.24996928 192.03296338 -34.25152603 181.79665534 -34.26074219 171.56030273 C-34.27148604 159.62186752 -34.27540778 147.68345978 -34.26951766 135.74501806 C-34.26641562 129.44410048 -34.26593975 123.14321403 -34.27259064 116.84229851 C-34.27840964 110.91679493 -34.27428464 104.99137624 -34.26280212 99.06588173 C-34.26017986 96.90411901 -34.26087844 94.74234903 -34.26532745 92.58058929 C-34.30712348 70.19110891 -32.76995152 48.5168982 -23 28 C-22.58234375 27.10023437 -22.1646875 26.20046875 -21.734375 25.2734375 C-18.632148 19.0868124 -7.58790631 0 0 0 Z " fill="#000002" transform="translate(79,73)"/>
<path d="M0 0 C1.84276509 1.84276509 1.12874411 4.42963759 1.13894653 6.88134766 C1.13591019 8.11570557 1.13591019 8.11570557 1.1328125 9.375 C1.13376923 10.21466309 1.13472595 11.05432617 1.13571167 11.91943359 C1.13639348 13.69824295 1.13453917 15.47705477 1.13037109 17.25585938 C1.12502283 19.98833776 1.13031605 22.72065176 1.13671875 25.453125 C1.13605797 27.1770837 1.13477681 28.90104229 1.1328125 30.625 C1.13483673 31.44790527 1.13686096 32.27081055 1.13894653 33.11865234 C1.11495054 38.88504946 1.11495054 38.88504946 0 40 C-2.16219838 40.09548472 -4.32490191 40.18443147 -6.48852539 40.23876953 C-16.05881494 40.50021028 -25.13146111 41.06515339 -34 45 C-34.89012283 45.30832764 -35.78024567 45.61665527 -36.69734192 45.93432617 C-40.29443322 47.56870376 -42.41205291 48.98423935 -45 52 C-47.13795828 58.72031218 -46.39242533 66.25416801 -46.2578125 73.2109375 C-46.25719503 75.30604477 -46.26157044 77.40115896 -46.27072144 79.49624634 C-46.28203552 84.99756311 -46.22857269 90.49635769 -46.1605835 95.99719238 C-46.1014414 101.61132942 -46.09864488 107.22543935 -46.09375 112.83984375 C-46.08765422 119.13835428 -46.07637649 125.436207 -46.01638794 131.73446655 C-46.00859818 132.68801025 -46.00080841 133.64155396 -45.99278259 134.62399292 C-45.97744442 136.41202775 -45.95815222 138.20003441 -45.93431091 139.98797607 C-45.9186616 141.99204257 -45.9536766 143.99640784 -46 146 C-47.84276509 147.84276509 -50.42963759 147.12874411 -52.88134766 147.13894653 C-53.70425293 147.1369223 -54.5271582 147.13489807 -55.375 147.1328125 C-56.21466309 147.13376923 -57.05432617 147.13472595 -57.91943359 147.13571167 C-59.69824295 147.13639348 -61.47705477 147.13453917 -63.25585938 147.13037109 C-65.98833776 147.12502283 -68.72065176 147.13031605 -71.453125 147.13671875 C-73.1770837 147.13605797 -74.90104229 147.13477681 -76.625 147.1328125 C-77.44790527 147.13483673 -78.27081055 147.13686096 -79.11865234 147.13894653 C-84.88504946 147.11495054 -84.88504946 147.11495054 -86 146 C-86.1060511 144.37419855 -86.14240997 142.74380959 -86.15148926 141.11457825 C-86.15983292 140.0564241 -86.16817657 138.99826996 -86.17677307 137.90805054 C-86.18095749 136.73674591 -86.18514191 135.56544128 -86.18945312 134.35864258 C-86.19774643 133.13252762 -86.20603973 131.90641266 -86.21458435 130.6431427 C-86.23203824 127.96778429 -86.2476864 125.29248423 -86.26036072 122.61710548 C-86.28058249 118.37471735 -86.30824411 114.13239785 -86.33703613 109.89006042 C-86.39721957 100.86423944 -86.44885128 91.83837594 -86.5 82.8125 C-86.55516853 73.11256746 -86.61209479 63.41265619 -86.67754889 53.71278685 C-86.7056427 49.50932267 -86.7293318 45.30586507 -86.74947357 41.1023556 C-86.76622703 37.84270958 -86.78890135 34.58310297 -86.81054688 31.32348633 C-86.81473129 30.1784967 -86.81891571 29.03350708 -86.82322693 27.8538208 C-86.87727348 20.76211058 -87.26404738 13.75721167 -87.88556671 6.69175243 C-87.94221119 5.35933498 -87.94221119 5.35933498 -88 4 C-86.00754107 2.00754107 -82.08081597 2.78856369 -79.3515625 2.76171875 C-78.5832309 2.753647 -77.81489929 2.74557526 -77.02328491 2.73725891 C-75.39412706 2.72340416 -73.76494002 2.71268824 -72.13574219 2.70483398 C-69.64201944 2.6876175 -67.14962114 2.64374638 -64.65625 2.59960938 C-63.07553061 2.58948311 -61.49479992 2.5809668 -59.9140625 2.57421875 C-59.16710114 2.55671066 -58.42013977 2.53920258 -57.65054321 2.52116394 C-52.48026407 2.54285705 -52.48026407 2.54285705 -50.06787109 4.83911133 C-48.19670378 8.62550866 -47.88841516 11.51528874 -47.9375 15.6875 C-47.94652344 16.68136719 -47.95554687 17.67523438 -47.96484375 18.69921875 C-47.97644531 19.45847656 -47.98804688 20.21773437 -48 21 C-47.34 21 -46.68 21 -46 21 C-45.505 19.515 -45.505 19.515 -45 18 C-32.67320021 6.32066848 -17.3506347 -1.82480813 0 0 Z " fill="#8989FD" transform="translate(387,191)"/>
<path d="M0 0 C5.0325 -0.0825 10.065 -0.165 15.25 -0.25 C17.59206543 -0.30462402 17.59206543 -0.30462402 19.98144531 -0.36035156 C30.41128125 -0.44243456 41.17298815 0.26080736 49.0625 7.9375 C49.75472656 8.58589844 50.44695312 9.23429688 51.16015625 9.90234375 C57.0931149 16.66667241 58.41432197 22.99379936 58.24609375 31.78125 C57.56649286 40.66999821 52.89921319 46.98938072 46.8125 53.25 C32.41897855 62.2059689 16.72043371 60 0 60 C0 40.2 0 20.4 0 0 Z " fill="#01014B" transform="translate(180,183)"/>
<path d="" fill="#000000" transform="translate(0,0)"/>
<path d="" fill="#000000" transform="translate(0,0)"/>
<path d="" fill="#000000" transform="translate(0,0)"/>
<path d="" fill="#000000" transform="translate(0,0)"/>
<path d="" fill="#000000" transform="translate(0,0)"/>
<path d="" fill="#000000" transform="translate(0,0)"/>
<path d="" fill="#000000" transform="translate(0,0)"/>
<path d="" fill="#000000" transform="translate(0,0)"/>
<path d="" fill="#000000" transform="translate(0,0)"/>
<path d="" fill="#000000" transform="translate(0,0)"/>
<path d="" fill="#000000" transform="translate(0,0)"/>
</svg>
