<?xml version="1.0" encoding="UTF-8"?>
<svg version="1.1" xmlns="http://www.w3.org/2000/svg" width="3000" height="2926">
<path d="M0 0 C4.21467635 0.00546397 8.42933994 -0.00093284 12.64401492 -0.0056737 C20.02978412 -0.01240427 27.41552368 -0.0118371 34.80129346 -0.00630661 C45.85806199 0.00193509 56.91480685 -0.00149641 67.97157596 -0.00707189 C86.8228806 -0.01624109 105.67417441 -0.01598695 124.52548 -0.01051014 C143.61567947 -0.00499779 162.70587183 -0.00385483 181.79607174 -0.00798481 C183.0041125 -0.00824315 184.21215327 -0.0085015 185.45680133 -0.00876767 C190.37737388 -0.00983427 195.29794643 -0.0109317 200.21851896 -0.01206822 C245.99717493 -0.02263441 291.77582681 -0.02337711 337.55448314 -0.01777332 C338.92334209 -0.01760605 340.29220104 -0.01743878 341.66105998 -0.01727153 C342.6786857 -0.01714716 342.6786857 -0.01714716 343.7168695 -0.01702028 C352.66415342 -0.01592716 361.61143734 -0.01485394 370.55872127 -0.01383369 C371.58469636 -0.01371621 371.58469636 -0.01371621 372.63139822 -0.01359635 C404.36142418 -0.0099901 436.09144951 -0.01085215 467.82147557 -0.0126946 C471.28545316 -0.0128942 474.74943076 -0.0130852 478.21340836 -0.01327715 C488.65485245 -0.01385836 499.09629654 -0.01445224 509.53774063 -0.01507235 C541.37605969 -0.01696119 573.21437875 -0.01816183 605.05269787 -0.01876896 C605.76153485 -0.01878269 606.47037184 -0.01879643 607.20068873 -0.01881058 C653.09035411 -0.01968775 698.98001879 -0.0174881 744.86968395 -0.0130698 C745.60201085 -0.01299956 746.33433775 -0.01292932 747.08885638 -0.01285696 C771.61648257 -0.01050442 796.14410876 -0.00799221 820.67173494 -0.0054637 C894.83806013 0.00217678 969.0043828 0.00636436 1101.45778019 -0.00569436 C1125.97928757 -0.00822088 1150.50079496 -0.01071797 1175.02230236 -0.0130698 C1175.75442482 -0.01314029 1176.48654729 -0.01321078 1177.24085528 -0.0132834 C1223.10699976 -0.01769564 1268.97314375 -0.01965782 1314.83928844 -0.01876896 C1315.54788705 -0.01875544 1316.25648565 -0.01874193 1316.98655694 -0.01872801 C1348.80734873 -0.0181145 1380.62814046 -0.01683775 1412.4489322 -0.01494795 C1422.88570096 -0.01432888 1433.32246972 -0.01374021 1443.75923848 -0.01316185 C1447.22121594 -0.01296987 1450.6831934 -0.01277516 1454.14517086 -0.01257413 C1485.8745359 -0.01073734 1517.6039001 -0.0102004 1549.33326503 -0.01383369 C1550.01681271 -0.01391163 1550.70036039 -0.01398958 1551.40462164 -0.01406988 C1560.3467232 -0.01509338 1569.28882476 -0.01617868 1578.23092632 -0.01727153 C1579.24774344 -0.01739577 1579.24774344 -0.01739577 1580.28510232 -0.01752252 C1581.6527109 -0.01768964 1583.02031948 -0.0178569 1584.38792806 -0.01802431 C1630.71902103 -0.02368095 1677.05010922 -0.02191311 1723.38120171 -0.01121183 C1728.28610599 -0.01010715 1733.19101028 -0.00903374 1738.09591457 -0.00798481 C1739.90149998 -0.00759419 1739.90149998 -0.00759419 1741.74356186 -0.00719567 C1760.7797704 -0.00325566 1779.81597182 -0.00599229 1798.85217972 -0.01152282 C1817.58421078 -0.01682206 1836.31622986 -0.01494045 1855.0482594 -0.00549464 C1866.02004379 -0.00017257 1876.99179529 -0.00024212 1887.96357809 -0.00845784 C1895.26578493 -0.01337334 1902.56796636 -0.01093798 1909.87017016 -0.00272413 C1913.99949521 0.00172139 1918.12875515 0.003247 1922.2580771 -0.00435716 C1947.10977103 -0.04695403 1971.82438391 0.76338225 1996.50849315 3.94231732 C1997.812541 4.10965374 1999.11658886 4.27699017 2000.46015331 4.4493974 C2083.94601993 15.52926576 2166.67027658 46.87041394 2238.94599315 99.25481732 C2239.61002147 99.74014935 2240.27404979 100.22548138 2240.95820018 100.72552044 C2251.21916226 108.24477723 2261.16713794 116.11997262 2270.94599315 124.25481732 C2271.54121776 124.74949505 2272.13644237 125.24417279 2272.74970409 125.75384076 C2285.93505965 136.76247281 2298.34021413 148.57663892 2310.50849315 160.69231732 C2311.24615917 161.42531048 2311.98382518 162.15830365 2312.74384472 162.91350872 C2317.34898879 167.5322899 2321.69926315 172.306492 2325.94599315 177.25481732 C2326.97985937 178.43433472 2328.01498444 179.61275008 2329.0514619 180.78997357 C2394.07454166 255.04839686 2436.91140515 345.8451095 2457.94599315 475.25481732 C2458.02842215 476.02580182 2458.11085114 476.79678633 2458.19577799 477.591134 C2460.0025734 495.01865453 2460.23475048 512.37119955 2460.20338168 529.86968272 C2460.19832381 533.96120349 2460.2050649 538.05270969 2460.21018535 542.14422808 C2460.21758342 549.32066685 2460.21765442 556.49707589 2460.21279586 563.6735164 C2460.2055584 574.41704732 2460.20993812 585.16055285 2460.21647721 595.90408311 C2460.2272858 614.21986498 2460.22864085 632.53563655 2460.22477886 650.85142071 C2460.22089833 669.40351754 2460.22136438 687.9556067 2460.22708866 706.50770314 C2460.22744748 707.68104183 2460.22780631 708.85438053 2460.22817601 710.06327495 C2460.22965098 714.84240091 2460.23115538 719.62152686 2460.23269747 724.4006528 C2460.24810627 772.21111985 2460.25108156 820.02158179 2460.24864345 867.83205091 C2460.24826826 875.19497404 2460.24791059 882.55789717 2460.24757573 889.92082031 C2460.24754501 890.58563114 2460.2475143 891.25044197 2460.24748265 891.93539858 C2460.24610736 922.09729977 2460.24864112 952.25920017 2460.2521018 982.42110114 C2460.25256503 986.45870856 2460.25301689 990.49631599 2460.25346592 994.53392341 C2460.2535402 995.20136783 2460.25361448 995.86881224 2460.25369101 996.55648225 C2460.25384116 997.90581977 2460.25399128 999.25515729 2460.25414137 1000.60449481 C2460.25451744 1003.98324167 2460.25489491 1007.36198853 2460.25527245 1010.74073539 C2460.25534725 1011.41065561 2460.25542206 1012.08057584 2460.25549913 1012.77079667 C2460.25587761 1016.15856041 2460.25625753 1019.54632414 2460.25664007 1022.93408787 C2460.26020791 1054.5485892 2460.26307239 1086.16309056 2460.26523277 1117.77759201 C2460.26528001 1118.46637144 2460.26532725 1119.15515087 2460.26537592 1119.8648024 C2460.26836984 1163.74313625 2460.26824633 1207.62146949 2460.26581199 1251.49980337 C2460.26569241 1253.65673839 2460.26557402 1255.81367342 2460.2654559 1257.97060844 C2460.26458452 1273.84680096 2460.26365392 1289.72299349 2460.26270527 1305.59918601 C2460.26261889 1307.04701453 2460.26253251 1308.49484305 2460.26244615 1309.94267158 C2460.26235972 1311.39108751 2460.26227327 1312.83950344 2460.26218682 1314.28791936 C2460.26214403 1315.00509361 2460.26210124 1315.72226785 2460.26205716 1316.46117464 C2460.26184077 1320.08491247 2460.26162332 1323.7086503 2460.26140393 1327.33238813 C2460.2572658 1395.7683448 2460.25618642 1464.2042984 2460.26856395 1532.64025433 C2460.26869424 1533.36067992 2460.26882452 1534.08110551 2460.26895875 1534.82336217 C2460.27291069 1556.60882014 2460.27727025 1578.39427803 2460.28172991 1600.1797359 C2460.28660618 1624.00249728 2460.29144024 1647.82525866 2460.29601165 1671.6480201 C2460.29614843 1672.35928822 2460.2962852 1673.07055633 2460.29642611 1673.80337803 C2460.30498466 1718.36922017 2460.30988485 1762.93506143 2460.31071922 1807.50090439 C2460.31073913 1808.53381793 2460.31073913 1808.53381793 2460.31075944 1809.58759841 C2460.31133484 1839.83366833 2460.31104981 1870.07973821 2460.30984072 1900.32580811 C2460.30938154 1911.82138658 2460.30898929 1923.31696505 2460.30862996 1934.81254352 C2460.3085457 1937.503453 2460.30845643 1940.19436248 2460.30836314 1942.88527195 C2460.30730855 1973.71681059 2460.3083778 2004.54834697 2460.3160381 2035.37988479 C2460.31620274 2036.04392059 2460.31636739 2036.70795639 2460.31653702 2037.39211448 C2460.31936008 2048.73588862 2460.32236654 2060.07966272 2460.3253671 2071.42343681 C2460.33702571 2115.78661062 2460.33757145 2160.14977221 2460.32552368 2204.51294607 C2460.3242719 2209.28173802 2460.32306841 2214.05052997 2460.32190296 2218.81932194 C2460.32161266 2219.98963297 2460.32132237 2221.15994399 2460.32102328 2222.36571899 C2460.31670611 2240.86011876 2460.32241435 2259.35450111 2460.33234315 2277.84889814 C2460.34190503 2296.05602175 2460.34067227 2314.26311859 2460.32813693 2332.47024066 C2460.32111505 2343.12935766 2460.32215382 2353.7883975 2460.33548531 2364.44750891 C2460.34353373 2371.54780723 2460.34048678 2378.64804779 2460.32883567 2385.7483409 C2460.32255146 2389.75959489 2460.32056378 2393.77069775 2460.33240288 2397.7819427 C2460.48054561 2451.72475775 2452.32037554 2504.84057052 2435.94599315 2556.25481732 C2435.34951527 2558.18837291 2434.7531587 2560.12196593 2434.15693065 2562.05559857 C2423.1350407 2597.06823118 2407.47416663 2630.63248798 2388.94599315 2662.25481732 C2388.45131542 2663.10882122 2387.95663768 2663.96282513 2387.44696972 2664.84270794 C2372.80885059 2690.09028549 2355.84476392 2714.00938922 2336.94599315 2736.25481732 C2336.48193065 2736.80234662 2336.01786815 2737.34987591 2335.53974315 2737.91399701 C2324.39534679 2751.02714196 2312.71253059 2763.56078944 2300.57099315 2775.75481732 C2299.83405224 2776.49643109 2299.09711132 2777.23804486 2298.33783886 2778.00213177 C2294.25543504 2782.07256778 2290.07762865 2785.96849966 2285.71015331 2789.73137982 C2283.53610554 2791.60877507 2281.43098374 2793.55595329 2279.32099315 2795.50481732 C2274.28045489 2800.05284497 2268.9972085 2804.22173827 2263.63349315 2808.37591107 C2261.18818008 2810.27257964 2258.7744821 2812.20029007 2256.38349315 2814.16497357 C2247.33404599 2821.5844647 2237.90427467 2828.26336025 2228.1740205 2834.76018841 C2226.18695645 2836.09317177 2224.21415298 2837.44381636 2222.2467744 2838.80559857 C2186.8117574 2863.17831429 2147.30293981 2881.71625444 2106.94599315 2896.25481732 C2105.93101757 2896.622039 2104.91604198 2896.98926068 2103.87030956 2897.36761029 C2069.23541326 2909.76258326 2032.96888873 2917.88869125 1996.50849315 2922.56731732 C1995.36428905 2922.71467328 1994.22008495 2922.86202923 1993.041208 2923.01385052 C1968.68515556 2925.89027099 1944.3819562 2926.55473298 1919.89198631 2926.50963464 C1915.67730995 2926.50417067 1911.46264636 2926.51056748 1907.24797138 2926.51530833 C1899.86220219 2926.52203891 1892.47646262 2926.52147174 1885.09069285 2926.51594124 C1874.03392431 2926.50769954 1862.97717946 2926.51113104 1851.92041034 2926.51670653 C1833.06910571 2926.52587572 1814.2178119 2926.52562158 1795.36650631 2926.52014477 C1776.27630683 2926.51463243 1757.18611447 2926.51348947 1738.09591457 2926.51761944 C1736.8878738 2926.51787779 1735.67983304 2926.51813613 1734.43518497 2926.51840231 C1729.51461242 2926.51946891 1724.59403988 2926.52056633 1719.67346734 2926.52170286 C1673.89481138 2926.53226905 1628.11615949 2926.53301174 1582.33750316 2926.52740796 C1580.96864422 2926.52724068 1579.59978527 2926.52707342 1578.23092632 2926.52690616 C1577.55250918 2926.52682325 1576.87409204 2926.52674034 1576.1751168 2926.52665492 C1567.22783288 2926.5255618 1558.28054896 2926.52448857 1549.33326503 2926.52346833 C1548.64928164 2926.52339 1547.96529825 2926.52331168 1547.26058809 2926.52323099 C1515.53056213 2926.51962473 1483.80053679 2926.52048679 1452.07051074 2926.52232924 C1448.60653314 2926.52252883 1445.14255555 2926.52271983 1441.67857795 2926.52291179 C1431.23713386 2926.523493 1420.79568977 2926.52408688 1410.35424568 2926.52470699 C1378.51592662 2926.52659583 1346.67760755 2926.52779647 1314.83928844 2926.52840359 C1314.13045146 2926.52841733 1313.42161447 2926.52843107 1312.69129757 2926.52844522 C1266.80163219 2926.52932239 1220.91196752 2926.52712273 1175.02230236 2926.52270443 C1174.28997546 2926.5226342 1173.55764856 2926.52256396 1172.80312993 2926.5224916 C1148.27550373 2926.52013905 1123.74787755 2926.51762684 1099.22025137 2926.51509833 C1025.05392617 2926.50745785 950.88760351 2926.50327028 818.43420612 2926.515329 C793.91269874 2926.51785551 769.39119135 2926.52035261 744.86968395 2926.52270443 C744.13756148 2926.52277492 743.40543902 2926.52284541 742.65113103 2926.52291804 C696.78498655 2926.52733028 650.91884256 2926.52929245 605.05269787 2926.52840359 C604.34409926 2926.52839008 603.63550066 2926.52837657 602.90542937 2926.52836265 C571.08463758 2926.52774914 539.26384584 2926.52647239 507.44305411 2926.52458259 C497.00628535 2926.52396352 486.56951659 2926.52337485 476.13274782 2926.52279649 C472.67077036 2926.5226045 469.20879291 2926.5224098 465.74681545 2926.52220877 C434.0174504 2926.52037198 402.28808621 2926.51983504 370.55872127 2926.52346833 C369.87517359 2926.52354627 369.19162592 2926.52362421 368.48736467 2926.52370452 C359.5452631 2926.52472802 350.60316154 2926.52581332 341.66105998 2926.52690616 C340.9831819 2926.52698899 340.30530382 2926.52707182 339.60688398 2926.52715715 C338.2392754 2926.52732427 336.87166682 2926.52749154 335.50405824 2926.52765895 C289.17296528 2926.53331559 242.84187709 2926.53154775 196.51078459 2926.52084647 C191.60588031 2926.51974179 186.70097603 2926.51866838 181.79607174 2926.51761944 C179.99048633 2926.51722882 179.99048633 2926.51722882 178.14842445 2926.51683031 C159.11221591 2926.5128903 140.07601448 2926.51562692 121.03980658 2926.52115745 C102.30777553 2926.5264567 83.57575645 2926.52457509 64.84372691 2926.51512928 C53.87194251 2926.50980721 42.90019102 2926.50987675 31.92840822 2926.51809247 C24.62620137 2926.52300798 17.32401995 2926.52057261 10.02181615 2926.51235876 C5.8924911 2926.50791325 1.76323116 2926.50638764 -2.36609079 2926.5139918 C-27.21778472 2926.55658866 -51.9323976 2925.74625238 -76.61650685 2922.56731732 C-77.9205547 2922.39998089 -79.22460255 2922.23264447 -80.568167 2922.06023724 C-164.05403362 2910.98036888 -246.77829027 2879.63922069 -319.05400685 2827.25481732 C-319.71803517 2826.76948529 -320.38206349 2826.28415326 -321.06621388 2825.78411419 C-331.32717596 2818.26485741 -341.27515163 2810.38966202 -351.05400685 2802.25481732 C-351.64923146 2801.76013958 -352.24445607 2801.26546185 -352.85771778 2800.75579388 C-366.04307335 2789.74716182 -378.44822782 2777.93299571 -390.61650685 2765.81731732 C-391.35417286 2765.08432415 -392.09183888 2764.35133099 -392.85185841 2763.59612591 C-396.90464507 2759.53133783 -400.7814769 2755.369496 -404.52837208 2751.02117474 C-406.40665049 2748.84653172 -408.35444461 2746.74056384 -410.30400685 2744.62981732 C-415.34582405 2739.03535573 -419.94520382 2733.14583965 -424.54424122 2727.18841107 C-426.06229822 2725.24419836 -427.60866318 2723.32604917 -429.16338185 2721.41106732 C-488.69006784 2647.47116166 -524.1812729 2555.73420833 -538.05400685 2451.25481732 C-538.13643584 2450.48383281 -538.21886484 2449.71284831 -538.30379168 2448.91850063 C-540.11058709 2431.49098011 -540.34276417 2414.13843509 -540.31139537 2396.63995192 C-540.30633751 2392.54843114 -540.31307859 2388.45692495 -540.31819904 2384.36540655 C-540.32559711 2377.18896778 -540.32566812 2370.01255875 -540.32080955 2362.83611824 C-540.31357209 2352.09258732 -540.31795182 2341.34908179 -540.3244909 2330.60555153 C-540.33529949 2312.28976966 -540.33665454 2293.97399809 -540.33279255 2275.65821392 C-540.32891202 2257.1061171 -540.32937807 2238.55402794 -540.33510235 2220.0019315 C-540.33546118 2218.8285928 -540.33582 2217.65525411 -540.3361897 2216.44635969 C-540.33766467 2211.66723373 -540.33916907 2206.88810777 -540.34071117 2202.10898183 C-540.35611997 2154.29851478 -540.35909525 2106.48805285 -540.35665715 2058.67758373 C-540.35628196 2051.3146606 -540.35592429 2043.95173746 -540.35558942 2036.58881433 C-540.35555871 2035.9240035 -540.35552799 2035.25919267 -540.35549634 2034.57423606 C-540.35412105 2004.41233486 -540.35665481 1974.25043447 -540.36011549 1944.08853349 C-540.36057872 1940.05092607 -540.36103059 1936.01331865 -540.36147961 1931.97571123 C-540.36155389 1931.30826681 -540.36162817 1930.64082239 -540.3617047 1929.95315239 C-540.36185485 1928.60381486 -540.36200497 1927.25447734 -540.36215506 1925.90513982 C-540.36253114 1922.52639296 -540.3629086 1919.1476461 -540.36328615 1915.76889925 C-540.36336095 1915.09897902 -540.36343575 1914.4290588 -540.36351282 1913.73883796 C-540.3638913 1910.35107423 -540.36427122 1906.9633105 -540.36465376 1903.57554676 C-540.3682216 1871.96104544 -540.37108608 1840.34654408 -540.37324646 1808.73204262 C-540.3732937 1808.0432632 -540.37334094 1807.35448377 -540.37338961 1806.64483224 C-540.37638354 1762.76649838 -540.37626002 1718.88816514 -540.37382569 1675.00983127 C-540.3737061 1672.85289624 -540.37358772 1670.69596122 -540.3734696 1668.5390262 C-540.37259821 1652.66283367 -540.37166761 1636.78664115 -540.37071897 1620.91044863 C-540.37063258 1619.46262011 -540.37054621 1618.01479158 -540.37045985 1616.56696306 C-540.37037341 1615.11854713 -540.37028697 1613.6701312 -540.37020052 1612.22171527 C-540.37015773 1611.50454103 -540.37011494 1610.78736679 -540.37007085 1610.04845999 C-540.36985446 1606.42472216 -540.36963702 1602.80098434 -540.36941762 1599.17724651 C-540.36527949 1530.74128983 -540.36420011 1462.30533624 -540.37657765 1393.86938031 C-540.37677307 1392.78874192 -540.37677307 1392.78874192 -540.37697244 1391.68627246 C-540.38092439 1369.90081449 -540.38528395 1348.11535661 -540.3897436 1326.32989874 C-540.39461987 1302.50713736 -540.39945394 1278.68437598 -540.40402535 1254.86161454 C-540.40416212 1254.15034642 -540.40429889 1253.43907831 -540.4044398 1252.70625661 C-540.41299835 1208.14041447 -540.41789854 1163.57457321 -540.41873291 1119.00873024 C-540.41874618 1118.32012122 -540.41875946 1117.6315122 -540.41877313 1116.92203623 C-540.41934853 1086.6759663 -540.4190635 1056.42989643 -540.41785442 1026.18382652 C-540.41739523 1014.68824806 -540.41700299 1003.19266959 -540.41664366 991.69709112 C-540.41655939 989.00618164 -540.41647012 986.31527216 -540.41637684 983.62436268 C-540.41532224 952.79282405 -540.41639149 921.96128767 -540.42405179 891.12974985 C-540.42429876 890.13369615 -540.42429876 890.13369615 -540.42455071 889.11752015 C-540.42737377 877.77374601 -540.43038023 866.42997192 -540.4333808 855.08619783 C-540.4450394 810.72302402 -540.44558514 766.35986243 -540.43353737 721.99668856 C-540.43228559 717.22789662 -540.4310821 712.45910466 -540.42991665 707.69031269 C-540.42962636 706.52000167 -540.42933606 705.34969064 -540.42903697 704.14391565 C-540.4247198 685.64951588 -540.43042804 667.15513353 -540.44035684 648.66073649 C-540.44991872 630.45361289 -540.44868596 612.24651605 -540.43615062 594.03939398 C-540.42912875 583.38027698 -540.43016751 572.72123713 -540.443499 562.06212573 C-540.45154742 554.9618274 -540.44850047 547.86158685 -540.43684937 540.76129373 C-540.43056515 536.75003974 -540.42857747 532.73893688 -540.44041657 528.72769194 C-540.58849268 474.80913733 -532.47443649 421.63670603 -516.05400685 370.25481732 C-515.58293507 368.74951458 -515.58293507 368.74951458 -515.10234669 367.21380169 C-494.79711319 302.48101172 -460.82131215 242.02259778 -417.05400685 190.25481732 C-416.62764942 189.7449931 -416.201292 189.23516888 -415.76201466 188.70989544 C-404.66422537 175.44877917 -392.81447593 162.9432443 -380.61650685 150.69231732 C-379.88351368 149.9546513 -379.15052052 149.21698529 -378.39531544 148.45696576 C-374.33052736 144.4041791 -370.16868553 140.52734726 -365.82036427 136.78045208 C-363.64572124 134.90217368 -361.53975337 132.95437956 -359.42900685 131.00481732 C-354.38846859 126.45678967 -349.10522219 122.28789637 -343.74150685 118.13372357 C-341.29619378 116.237055 -338.8824958 114.30934457 -336.49150685 112.34466107 C-327.44205969 104.92516994 -318.01228837 98.24627439 -308.28203419 91.74944622 C-306.29497014 90.41646287 -304.32216667 89.06581828 -302.3547881 87.70403607 C-266.91977109 63.33132035 -227.41095351 44.7933802 -187.05400685 30.25481732 C-186.03903126 29.88759564 -185.02405567 29.52037396 -183.97832325 29.14202435 C-149.34342695 16.74705138 -113.07690243 8.62094339 -76.61650685 3.94231732 C-75.47230275 3.79496136 -74.32809864 3.6476054 -73.14922169 3.49578412 C-48.79316925 0.61936364 -24.48996989 -0.04509835 0 0 Z " fill="#001E36" transform="translate(540.0540068466216,-0.25481731817126274)"/>
<path d="M0 0 C1.56484383 0.00040031 1.56484383 0.00040031 3.16130066 0.00080872 C67.0152101 0.02127971 67.0152101 0.02127971 98.4375 2.1875 C99.32791992 2.2483075 100.21833984 2.30911499 101.13574219 2.37176514 C183.63915825 8.11817084 267.64822812 25.71939654 341.46240234 64.16308594 C343.59936914 65.27145586 345.74664156 66.35827357 347.89453125 67.4453125 C377.35724668 82.49147563 404.41787836 101.61309364 429.4375 123.1875 C430.15421875 123.80238281 430.8709375 124.41726563 431.609375 125.05078125 C444.26454506 136.00639334 456.61492312 147.39301292 467.4375 160.1875 C468.2109375 161.07179688 468.984375 161.95609375 469.78125 162.8671875 C488.28134141 184.14403463 503.74477383 207.58823777 517.4375 232.1875 C517.85064453 232.92194336 518.26378906 233.65638672 518.68945312 234.41308594 C544.56242468 280.68511192 560.3994639 335.39394446 566.39331055 387.97143555 C566.62734877 390.02056473 566.87431187 392.06784196 567.12304688 394.11523438 C569.16056019 411.16574306 569.64227286 428.03330999 569.625 445.1875 C569.62409363 446.85005829 569.62409363 446.85005829 569.62316895 448.54620361 C569.59664474 466.51117445 569.13622602 484.29273252 567.4375 502.1875 C567.33921906 503.24686768 567.33921906 503.24686768 567.23895264 504.32763672 C565.4833271 523.2066589 563.22378259 541.80110467 559.06982422 560.32568359 C558.43083962 563.217644 557.83716629 566.11585782 557.25390625 569.01953125 C546.60293723 621.3592993 524.51197776 673.38503991 492.4375 716.1875 C491.33535156 717.69957031 491.33535156 717.69957031 490.2109375 719.2421875 C485.0977786 726.19825172 479.64311004 732.77338377 474.01220703 739.30957031 C472.84479786 740.70177362 471.70385268 742.11626015 470.57763672 743.54199219 C464.64274785 751.01433901 458.16512942 757.76753086 451.39990234 764.48583984 C449.56502731 766.30998747 447.74110668 768.14459873 445.91796875 769.98046875 C439.84378251 776.06163469 433.69541076 781.82153513 426.95092773 787.16845703 C424.50131759 789.13623516 422.16755486 791.18711058 419.83984375 793.296875 C415.41180508 797.27178918 410.77225232 800.8869633 406 804.4375 C405.13673096 805.08154785 404.27346191 805.7255957 403.3840332 806.38916016 C390.24116773 816.11456851 376.59340248 825.01286314 362.4375 833.1875 C361.78974609 833.56551758 361.14199219 833.94353516 360.47460938 834.33300781 C318.52684017 858.71134904 271.62997633 875.72403205 224.375 886.625 C222.48056152 887.06440918 222.48056152 887.06440918 220.54785156 887.51269531 C207.04344098 890.60712988 193.43925853 893.15431819 179.80224609 895.58691406 C177.06010233 896.07636941 174.32073996 896.57777282 171.58203125 897.0859375 C149.55516994 901.07862852 127.18666502 903.21714276 104.875 904.8125 C104.09809814 904.86889648 103.32119629 904.92529297 102.52075195 904.98339844 C96.16266333 905.4380761 89.80097078 905.81689593 83.4375 906.1875 C82.05521895 906.27078708 80.67294607 906.35420993 79.29067993 906.43774414 C54.60266956 907.91534731 29.98829968 908.510386 5.25756836 908.44824219 C0.61665795 908.43668634 -4.02402704 908.4437343 -8.66493034 908.45513153 C-40.65066761 908.52169009 -40.65066761 908.52169009 -52.01953125 907.234375 C-58.94773674 906.45924805 -65.81009828 905.99933292 -72.77958679 905.86651611 C-73.69690293 905.84580134 -74.61421907 905.82508657 -75.55933267 905.80374408 C-78.44663251 905.73940085 -81.33401328 905.68063283 -84.22143555 905.62207031 C-86.19683378 905.57903531 -88.17222404 905.53563236 -90.1476059 905.49185181 C-94.952489 905.3861545 -99.75745301 905.28545181 -104.5625 905.1875 C-104.56098112 906.05065327 -104.55946224 906.91380654 -104.55789733 907.80311596 C-104.46843177 958.93327807 -104.39977742 1010.06343189 -104.35823868 1061.19365657 C-104.35323571 1067.32962535 -104.34805844 1073.46559396 -104.34277344 1079.6015625 C-104.3417242 1080.82315008 -104.34067495 1082.04473766 -104.33959392 1083.30334304 C-104.32217727 1103.09658502 -104.29063264 1122.88978064 -104.25388882 1142.6829951 C-104.21651446 1162.98482396 -104.19427157 1183.28662851 -104.18614602 1203.58849037 C-104.18065098 1216.12106286 -104.16328038 1228.65350434 -104.13083413 1241.18603651 C-104.10972952 1249.77401776 -104.10329076 1258.36193103 -104.10849449 1266.94993635 C-104.11106258 1271.90862206 -104.10705952 1276.86707846 -104.0856781 1281.82572365 C-104.06625431 1286.36339681 -104.06520279 1290.9006858 -104.07890442 1295.43837641 C-104.08059856 1297.08181782 -104.07548901 1298.72528293 -104.06296727 1300.36867751 C-104.04695031 1302.60015945 -104.05554237 1304.83024853 -104.07030869 1307.06170845 C-104.0687898 1308.30187505 -104.06727092 1309.54204165 -104.06570601 1310.81978905 C-104.75520699 1315.49383919 -106.66391917 1318.64356182 -110.33705604 1321.63058043 C-115.92349683 1324.38659058 -120.80208999 1324.75370062 -126.97512817 1324.69543457 C-127.99861827 1324.70167453 -129.02210836 1324.7079145 -130.07661331 1324.71434355 C-133.49288158 1324.73024905 -136.90843395 1324.71767843 -140.32470703 1324.70507812 C-142.77917903 1324.71050023 -145.23364777 1324.71762339 -147.68811035 1324.72631836 C-153.65419025 1324.74265095 -159.61999103 1324.74027942 -165.58605994 1324.7286678 C-170.43518626 1324.71962187 -175.28425618 1324.71841446 -180.13338852 1324.72276306 C-180.82441257 1324.72337599 -181.51543663 1324.72398893 -182.2274008 1324.72462043 C-183.63132416 1324.72589937 -185.0352475 1324.72719622 -186.43917082 1324.7285108 C-199.59118657 1324.7399061 -212.74309063 1324.72681853 -225.89508806 1324.70530933 C-237.17604555 1324.68743132 -248.45683843 1324.69055021 -259.73779297 1324.70898438 C-272.84692051 1324.730396 -285.95595034 1324.73881591 -299.06509292 1324.72653532 C-300.46314294 1324.72526115 -301.86119297 1324.72400367 -303.25924301 1324.72276306 C-304.2909781 1324.72183741 -304.2909781 1324.72183741 -305.34355632 1324.72089306 C-310.18694846 1324.71744161 -315.03027852 1324.72326387 -319.87366104 1324.73268127 C-326.39247951 1324.74507818 -332.91103507 1324.7362382 -339.42984009 1324.71310425 C-341.82358152 1324.70781045 -344.21734911 1324.70934232 -346.61108017 1324.71815491 C-349.87568815 1324.72906666 -353.13929511 1324.71539853 -356.40383911 1324.69543457 C-357.35364218 1324.70435746 -358.30344525 1324.71328034 -359.28203022 1324.72247362 C-364.81571175 1324.65672092 -368.35742282 1324.15069291 -372.5625 1320.1875 C-375.5035529 1314.65676691 -375.9916691 1310.20601157 -375.93854749 1304.00746191 C-375.94275444 1303.09846422 -375.94696139 1302.18946653 -375.95129583 1301.25292346 C-375.96176333 1298.19659662 -375.95081143 1295.14072246 -375.94002342 1292.08440208 C-375.94315207 1289.86581447 -375.94759525 1287.64722838 -375.95323652 1285.42864573 C-375.96496778 1279.30121338 -375.95790316 1273.17392197 -375.94790266 1267.0464918 C-375.94110068 1261.07795344 -375.94841983 1255.10943677 -375.95533381 1249.14090223 C-375.96914097 1236.78207146 -375.96868033 1224.4232777 -375.96049118 1212.06444359 C-375.95224136 1199.53780174 -375.95049322 1187.01118425 -375.95670319 1174.48454094 C-375.9570907 1173.69374923 -375.95747822 1172.90295751 -375.95787748 1172.08820242 C-375.95947727 1168.86750817 -375.96112339 1165.64681395 -375.96282831 1162.42611976 C-375.97870252 1132.41777651 -375.97976972 1102.4094496 -375.97138596 1072.40110397 C-375.97113757 1071.51162474 -375.97088918 1070.62214551 -375.97063327 1069.70571237 C-375.97038448 1068.8148156 -375.97013569 1067.92391884 -375.96987936 1067.00602521 C-375.96231506 1039.88334451 -375.9603532 1012.76067057 -375.9639473 985.63798904 C-375.96417973 983.82295372 -375.9644112 982.00791839 -375.96464171 980.19288307 C-375.96557307 972.89934782 -375.96652907 965.60581257 -375.967521 958.31227732 C-375.97027224 937.92300644 -375.97198388 917.53373554 -375.97287941 897.14446449 C-375.97292035 896.21593053 -375.97296128 895.28739657 -375.97300346 894.33072522 C-375.97423158 864.73656204 -375.9708491 835.1424012 -375.96433067 805.54823875 C-375.96411993 804.58814886 -375.96390918 803.62805896 -375.96369205 802.63887543 C-375.96025704 787.04682328 -375.95659873 771.45477119 -375.95292152 755.8627191 C-375.9383509 694.01459267 -375.93902941 632.16648572 -375.95361328 570.31835938 C-375.95727672 554.73186431 -375.96090982 539.14536925 -375.96433067 523.55887413 C-375.96454202 522.59921318 -375.96475336 521.63955222 -375.96497111 520.65081063 C-375.97143753 491.08618985 -375.9741829 461.5215707 -375.97287941 431.95694923 C-375.97283866 431.0291208 -375.9727979 430.10129236 -375.97275592 429.14534792 C-375.97181857 408.78010347 -375.96991784 388.4148592 -375.9671479 368.04961492 C-375.96616044 360.76316195 -375.9652212 353.47670898 -375.96429577 346.19025601 C-375.9640636 344.3775079 -375.96382741 342.56475979 -375.96358718 340.75201169 C-375.9600033 313.63373787 -375.96306172 286.51547166 -375.97063327 259.39719879 C-375.97088166 258.50755397 -375.97113004 257.61790914 -375.97138596 256.70130539 C-375.97175803 255.36929025 -375.97175803 255.36929025 -375.97213761 254.01036572 C-375.98040322 224.09230143 -375.97738688 194.17425677 -375.96154372 164.25619529 C-375.95988659 161.04668253 -375.95827648 157.83716974 -375.95670319 154.62765694 C-375.95631257 153.83996426 -375.95592195 153.05227158 -375.95551949 152.24070942 C-375.9495914 139.74438024 -375.95373361 127.24807537 -375.9620102 114.75174837 C-375.96992632 102.47829444 -375.96719656 90.20488171 -375.95296794 77.93143302 C-375.94564129 71.36012135 -375.9434726 64.78888325 -375.95418589 58.21757238 C-375.96381776 52.24908935 -375.95984591 46.28078188 -375.94464391 40.31231186 C-375.94160217 38.1573861 -375.9436733 36.00244608 -375.95126172 33.84753154 C-375.96078993 30.93708436 -375.95205895 28.02725754 -375.93854749 25.11683977 C-375.94571972 24.27515959 -375.95289194 23.43347942 -375.96028151 22.56629379 C-375.91611253 17.92854579 -375.50863737 14.98697171 -372.5625 11.1875 C-369.52136383 8.25666022 -367.39401978 7.80697922 -363.22167969 7.77099609 C-361.61785431 7.74614639 -361.61785431 7.74614639 -359.98162842 7.72079468 C-358.82753479 7.71754181 -357.67344116 7.71428894 -356.484375 7.7109375 C-355.28500305 7.69535797 -354.0856311 7.67977844 -352.84991455 7.66372681 C-349.00411727 7.61617584 -345.15849817 7.58849298 -341.3125 7.5625 C-337.5094816 7.52571845 -333.70655726 7.48469183 -329.90362549 7.43984985 C-327.5393827 7.41316624 -325.17507397 7.39159179 -322.81072998 7.37631226 C-317.0870055 7.32325406 -311.40786229 7.13493909 -305.69775391 6.73291016 C-292.82823412 5.84643294 -279.91931572 5.65376379 -267.02624559 5.31132126 C-263.90260382 5.22802907 -260.77901113 5.14296674 -257.65541589 5.05795002 C-250.21077533 4.85537185 -242.76605968 4.65574438 -235.32128906 4.45800781 C-228.65485704 4.28090161 -221.98852125 4.10061758 -215.32226562 3.91699219 C-178.76068037 2.91044017 -142.20420797 2.03028988 -105.63173646 1.54069179 C-91.36544959 1.34958906 -77.10741663 1.11338518 -62.84765625 0.63671875 C-41.90328636 -0.0452405 -20.95354114 -0.01204516 0 0 Z " fill="#30A7FE" transform="translate(1050.5625,743.8125)"/>
<path d="M0 0 C2.80496582 0.58618648 5.61811369 1.11106782 8.43603516 1.63134766 C31.17510645 5.8794028 52.88961676 12.66685976 74.63427734 20.49853516 C77.15152267 21.40069929 79.6765363 22.27471097 82.20556641 23.14306641 C90.5118489 26.08956837 96.43960045 29.24402883 100.38960361 37.39775658 C103.62027042 46.61923561 102.90684745 56.44375659 102.88305664 66.07910156 C102.8887648 68.16609563 102.89573078 70.25308657 102.90385437 72.34007263 C102.92174768 77.98657704 102.92062505 83.63292573 102.91491199 89.27944994 C102.91181583 93.99884732 102.91791706 98.71821498 102.92395073 103.43760812 C102.93798062 114.57057264 102.93644631 125.70346039 102.92504883 136.83642578 C102.91355778 148.31432361 102.92766347 159.79198805 102.9544453 171.26985514 C102.97660264 181.13593426 102.98323992 191.00194012 102.97736889 200.86804235 C102.97399959 206.75580081 102.9764133 212.64340952 102.99361992 218.531147 C103.00908831 224.06509506 103.00513443 229.59869693 102.98631477 235.1326313 C102.98262922 237.16110099 102.98573634 239.18959633 102.99620056 241.21804237 C103.00941376 243.99143236 102.99786021 246.76367667 102.98020935 249.53701782 C102.98981436 250.33566588 102.99941936 251.13431394 103.00931543 251.95716345 C102.92494169 258.419762 101.11821755 263.87885276 96.47900391 268.51806641 C88.65831216 271.00964108 78.48098825 271.05530932 70.83837891 268.11962891 C68.43110461 266.7730942 66.06673479 265.40066563 63.70556641 263.97900391 C26.73935281 241.78496855 -19.5128758 231.23249482 -61.39501953 223.12939453 C-64.15367564 222.58990102 -66.90407722 222.02285389 -69.65380859 221.43994141 C-81.24003117 219.03361718 -92.91972223 217.43573822 -104.64599609 215.89306641 C-105.83574539 215.73630936 -105.83574539 215.73630936 -107.04953003 215.5763855 C-133.3274924 212.13761662 -159.25378162 210.25883706 -185.77099609 210.20556641 C-187.01811371 210.202948 -188.26523132 210.20032959 -189.55014038 210.19763184 C-207.5978181 210.19356904 -224.81571793 210.80686032 -242.52099609 214.51806641 C-244.33683394 214.85964371 -246.15323374 215.19824874 -247.97021484 215.53369141 C-267.0192543 219.16465028 -287.5519766 225.38364579 -299.14990234 242.20556641 C-306.57338356 254.72608173 -312.72025832 270.75613916 -309.03173828 285.46972656 C-304.2628686 301.33173248 -295.26525998 314.08330668 -282.52099609 324.51806641 C-281.58384766 325.29279297 -280.64669922 326.06751953 -279.68115234 326.86572266 C-272.16636897 332.93978653 -264.27724971 337.80591517 -255.75341797 342.33203125 C-253.43412393 343.56421962 -251.12618815 344.81623234 -248.81787109 346.06884766 C-234.97643822 353.51228093 -220.77749126 360.15137237 -206.46685791 366.6340332 C-204.48581826 367.53404821 -202.50775081 368.44033185 -200.53027344 369.34814453 C-184.07057881 376.89451698 -167.53570004 383.78715897 -150.45785522 389.81207275 C-102.03328635 406.90171016 -54.53734861 428.14081193 -10.14160156 454.00048828 C-7.478516 455.54266639 -4.80145137 457.05734866 -2.11865234 458.56494141 C18.84802951 470.36607923 39.07029567 482.96105295 57.47900391 498.51806641 C58.55551621 499.40776529 59.63235393 500.29707054 60.70947266 501.18603516 C73.82425594 512.10783624 86.02640096 524.00242963 96.47900391 537.51806641 C97.35457042 538.60564749 98.23229475 539.69149383 99.11181641 540.77587891 C105.30310424 548.45281518 110.99048004 556.3620121 116.296875 564.67529297 C117.41902306 566.42456467 118.56672981 568.15459941 119.71728516 569.88525391 C134.58567512 592.83522166 142.64468092 620.03672262 148.47900391 646.51806641 C148.71296875 647.5404541 148.71296875 647.5404541 148.95166016 648.58349609 C153.22101302 667.24749138 153.80862064 686.02847748 153.73974609 705.109375 C153.72899645 708.64551853 153.73972328 712.18115661 153.75244141 715.71728516 C153.76373514 733.79104459 152.33666872 750.84996156 148.47900391 768.51806641 C148.12322266 770.25830078 148.12322266 770.25830078 147.76025391 772.03369141 C147.03740143 775.53795451 146.27095089 779.02879505 145.47900391 782.51806641 C145.23923828 783.58283203 144.99947266 784.64759766 144.75244141 785.74462891 C135.81431494 822.08187202 118.94787617 858.3123587 95.47900391 887.51806641 C94.74166016 888.44619141 94.00431641 889.37431641 93.24462891 890.33056641 C85.81942813 899.54805703 77.93030173 908.23541976 69.47900391 916.51806641 C68.67462891 917.32244141 67.87025391 918.12681641 67.04150391 918.95556641 C66.19587891 919.80119141 65.35025391 920.64681641 64.47900391 921.51806641 C63.84607422 922.17419922 63.21314453 922.83033203 62.56103516 923.50634766 C56.88118708 929.32693533 50.86428597 934.48827145 44.47900391 939.51806641 C43.50318359 940.29923828 42.52736328 941.08041016 41.52197266 941.88525391 C3.20211131 972.05913215 -41.203633 990.45212606 -87.52099609 1004.51806641 C-88.51260742 1004.82083496 -89.50421875 1005.12360352 -90.52587891 1005.43554688 C-106.92376386 1010.37119972 -123.68497671 1013.50912247 -140.52099609 1016.51806641 C-141.62378906 1016.71674316 -142.72658203 1016.91541992 -143.86279297 1017.12011719 C-160.99610325 1020.16290365 -178.18933355 1022.02936122 -195.52099609 1023.51806641 C-197.2220752 1023.67686279 -197.2220752 1023.67686279 -198.95751953 1023.83886719 C-218.97397365 1025.66988814 -239.00163728 1025.70204608 -259.08349609 1025.70556641 C-260.08082827 1025.70635004 -260.08082827 1025.70635004 -261.09830856 1025.70714951 C-286.73615304 1025.72570907 -312.53118398 1025.65183389 -338.08349609 1023.33056641 C-339.12311996 1023.23778412 -339.12311996 1023.23778412 -340.18374634 1023.14312744 C-405.51704588 1017.2495501 -471.4284558 1006.09323937 -532.52099609 981.51806641 C-533.60719238 981.08558594 -534.69338867 980.65310547 -535.8125 980.20751953 C-539.30643834 978.80857075 -542.78977472 977.38583945 -546.27099609 975.95556641 C-547.35437256 975.52074951 -548.43774902 975.08593262 -549.55395508 974.63793945 C-558.85423171 970.75275739 -567.05278836 966.40294069 -571.50611305 956.97430992 C-573.92863925 948.72425537 -573.22029868 939.8124539 -573.18383789 931.28881836 C-573.1922575 929.02285928 -573.20278546 926.7569072 -573.21525574 924.4909668 C-573.24225434 918.35686226 -573.23761696 912.22316525 -573.22555518 906.08902764 C-573.2184147 900.96441189 -573.226929 895.83987105 -573.23546058 890.71526116 C-573.25653372 877.93794509 -573.24742528 865.16090954 -573.22398428 852.38361593 C-573.20572046 841.98583802 -573.21666158 831.58841499 -573.24829102 821.19067383 C-573.28507078 809.09923897 -573.3014171 797.00809929 -573.28887874 784.91659516 C-573.28239009 778.5218798 -573.28440282 772.12746318 -573.30820274 765.73278236 C-573.32943141 759.72346893 -573.32150647 753.71488701 -573.29110909 747.70561981 C-573.2847748 745.50096589 -573.28865896 743.29625532 -573.3035202 741.09164238 C-573.32217011 738.08099111 -573.30382066 735.07274123 -573.27616882 732.06221008 C-573.29023527 731.19061211 -573.30430172 730.31901415 -573.31879443 729.42100412 C-573.21536682 723.83022681 -571.90589183 720.88300715 -568.10559016 716.77219266 C-566.52099609 715.51806641 -566.52099609 715.51806641 -563.46289062 714.91992188 C-560.32443881 715.55803033 -558.20052431 716.45561139 -555.45068359 718.08837891 C-554.00508057 718.92767944 -554.00508057 718.92767944 -552.53027344 719.78393555 C-551.49596191 720.39744873 -550.46165039 721.01096191 -549.39599609 721.64306641 C-547.1383814 722.9409214 -544.87785596 724.23372367 -542.61474609 725.52197266 C-542.03139496 725.85436447 -541.44804382 726.18675629 -540.84701538 726.52922058 C-492.47452795 753.95888277 -439.60048151 770.84534179 -385.53369141 782.84326172 C-382.66816731 783.48510196 -379.80921999 784.15057583 -376.95068359 784.82275391 C-355.34380742 789.82167525 -333.02284439 793.36941455 -310.91845703 795.30761719 C-309.19180015 795.4591832 -307.46596014 795.62016068 -305.74072266 795.78710938 C-271.77453938 799.00570105 -236.29841358 799.78134596 -202.52099609 794.51806641 C-200.8498877 794.26065674 -200.8498877 794.26065674 -199.14501953 793.99804688 C-173.4712785 789.88804455 -144.11407734 783.67355503 -127.70849609 761.70556641 C-124.14808847 756.30617466 -121.6906074 750.59467307 -119.52099609 744.51806641 C-119.27349609 743.83099609 -119.02599609 743.14392578 -118.77099609 742.43603516 C-115.07931953 730.25862983 -117.45002048 716.03186316 -123.14599609 704.89306641 C-152.09990685 655.87772363 -228.17850914 635.27424501 -278.39599609 616.70556641 C-295.05316003 610.54575543 -311.34825816 603.86414169 -327.52099609 596.51806641 C-328.45078278 596.09717743 -328.45078278 596.09717743 -329.39935303 595.66778564 C-355.89847625 583.66880636 -381.54888796 570.46258928 -406.52099609 555.51806641 C-407.50374512 554.93379883 -408.48649414 554.34953125 -409.49902344 553.74755859 C-478.82968507 512.4795789 -540.69850271 452.69919684 -561.94482422 372.31665039 C-572.66419069 328.84643145 -573.18035396 285.49130414 -565.52099609 241.51806641 C-565.24147342 239.75127782 -564.96267835 237.98437375 -564.68505859 236.21728516 C-560.91775571 214.19616309 -552.33962384 191.50186171 -542.52099609 171.51806641 C-541.7328647 169.86589957 -540.94512339 168.21354661 -540.15771484 166.56103516 C-526.08474192 137.38124686 -506.64324855 112.54630682 -483.89599609 89.64306641 C-483.41462189 89.1562439 -482.93324768 88.66942139 -482.43728638 88.16784668 C-475.81486009 81.48966062 -468.90830372 75.34341813 -461.52099609 69.51806641 C-460.92963867 69.04175781 -460.33828125 68.56544922 -459.72900391 68.07470703 C-428.75407682 43.15700898 -392.7300647 25.06020423 -355.52099609 11.51806641 C-354.68745605 11.21078613 -353.85391602 10.90350586 -352.99511719 10.58691406 C-324.66505013 0.24361205 -294.41392414 -5.8759153 -264.52099609 -9.48193359 C-263.47588867 -9.60810059 -262.43078125 -9.73426758 -261.35400391 -9.86425781 C-176.54836334 -19.84502057 -83.75738999 -18.09018707 0 0 Z " fill="#30A7FE" transform="translate(2326.52099609375,1068.48193359375)"/>
<path d="M0 0 C1.60990001 -0.00464126 3.21979894 -0.00966762 4.82969666 -0.01504517 C9.16710931 -0.02804782 13.50450658 -0.03459047 17.84193563 -0.03905582 C20.56505755 -0.04200713 23.28817546 -0.04611564 26.01129532 -0.05056 C34.56975782 -0.06420478 43.12821092 -0.07388539 51.68668354 -0.07776189 C61.49435177 -0.0822313 71.30187985 -0.09973995 81.10950553 -0.12876248 C88.73809229 -0.15053627 96.36664007 -0.1604745 103.9952575 -0.16180301 C108.52920019 -0.16284015 113.06301065 -0.16851036 117.59692001 -0.18662262 C136.47153003 -0.25769845 154.90593762 -0.1321063 173.55908203 3.16113281 C174.52013226 3.32475563 175.48118248 3.48837845 176.47135544 3.65695953 C182.85101321 4.74371429 189.2069844 5.92405138 195.55908203 7.16113281 C196.3839209 7.31694824 197.20875977 7.47276367 198.05859375 7.63330078 C232.73656168 14.20715829 269.6992983 27.03289683 297.55908203 49.16113281 C298.08872559 49.5779834 298.61836914 49.99483398 299.1640625 50.42431641 C331.25527209 75.93570869 351.83788818 108.96701396 362.87158203 148.28613281 C363.10192139 149.0946167 363.33226074 149.90310059 363.56958008 150.73608398 C368.00349554 167.36692799 369.04568934 183.76429751 368.95019531 200.92016602 C368.93418336 204.32707253 368.95009719 207.73277872 368.96923828 211.13964844 C369.00925388 255.29576435 359.81424722 304.88238901 328.58251953 338.27441406 C327.44583122 339.40359122 326.29700506 340.52075577 325.13330078 341.62207031 C323.50068254 343.21822809 322.07046791 344.89760952 320.62158203 346.66113281 C317.28696376 350.60680679 313.50208627 353.83866695 309.55908203 357.16113281 C308.58712891 358.00933594 307.61517578 358.85753906 306.61376953 359.73144531 C266.22912824 394.82887463 213.93547894 409.7918431 162.12158203 418.78613281 C160.49325439 419.07738037 160.49325439 419.07738037 158.83203125 419.37451172 C155.57692704 419.9166459 152.32405353 420.39526542 149.05319214 420.8293457 C147.31050582 421.06117222 145.56913835 421.30303547 143.82888794 421.55249023 C116.24157541 425.37378836 88.34791423 424.55029171 60.56584197 424.43375671 C54.35217699 424.40860262 48.13856379 424.40269186 41.92485523 424.39870071 C35.24692648 424.39425437 28.56902612 424.37903275 21.89111328 424.36425781 C20.65155191 424.36237709 19.41199055 424.36049637 18.13486671 424.35855865 C6.46930139 424.33565509 -5.18274242 424.27316707 -16.83666992 423.7109375 C-17.64398906 423.67248341 -18.45130819 423.63402931 -19.28309155 423.59440994 C-23.09436104 423.3848527 -26.71213498 422.95556438 -30.44091797 422.16113281 C-30.46378191 368.67263789 -30.48141495 315.18414346 -30.4919833 261.69564462 C-30.49323408 255.3879981 -30.49452839 249.08035159 -30.49584961 242.77270508 C-30.49611192 241.51690918 -30.49637423 240.26111329 -30.49664449 238.96726298 C-30.50100173 218.60484524 -30.50888956 198.24243031 -30.51807076 177.88001425 C-30.52740582 157.0030305 -30.53297326 136.12604823 -30.53500646 115.24906248 C-30.536382 102.3556929 -30.54073424 89.46233125 -30.54883444 76.56896412 C-30.55410007 67.74041581 -30.55572268 58.91187164 -30.55441935 50.08332188 C-30.55377568 44.98154624 -30.5547967 39.87978452 -30.56012344 34.77801132 C-30.56495631 30.11550267 -30.56525737 25.45301741 -30.56181686 20.79050773 C-30.56139106 19.09601884 -30.56268774 17.40152854 -30.56580115 15.70704246 C-30.56976334 13.41915768 -30.56768249 11.13135949 -30.5639658 8.8434763 C-30.56434552 7.56799571 -30.56472524 6.29251512 -30.56511647 4.9783836 C-30.44091797 2.16113281 -30.44091797 2.16113281 -29.44091797 1.16113281 C-19.69270279 -0.12056625 -9.81348334 0.00668522 0 0 Z " fill="#001E36" transform="translate(978.44091796875,990.8388671875)"/>
</svg>
